#N canvas 0 22 493 647 10;
#X obj 53 168 bng 15 250 50 0 empty empty empty 17 7 0 10 -262144 -1
-1;
#X obj 149 296 int 1 1;
#X obj 193 272 timer;
#X obj 220 492 +;
#X obj 146 188 t b b b b b b;
#X obj 103 432 f;
#X floatatom 149 318 5 0 0 0 - - -, f 5;
#X obj 200 392 t b b f;
#X obj 149 337 moses 1000;
#X obj 149 365 moses 100;
#X obj 286 549 f;
#X obj 286 571 outlet;
#X obj 147 151 inlet;
#X obj 356 149 inlet;
#X obj 103 460 * 9;
#X obj 220 513 / 10;
#X connect 0 0 4 0;
#X connect 1 0 6 0;
#X connect 2 0 1 1;
#X connect 3 0 15 0;
#X connect 4 2 1 0;
#X connect 4 3 2 0;
#X connect 4 5 2 1;
#X connect 5 0 14 0;
#X connect 6 0 8 0;
#X connect 7 0 5 0;
#X connect 7 1 3 0;
#X connect 7 2 3 1;
#X connect 8 0 9 0;
#X connect 9 1 7 0;
#X connect 10 0 11 0;
#X connect 12 0 4 0;
#X connect 13 0 10 0;
#X connect 14 0 3 0;
#X connect 15 0 5 1;
#X connect 15 0 10 0;
