#N canvas 543 23 653 721 10;
#X floatatom 86 375 5 0 0 0 - - -, f 5;
#X text 224 315 measure counter;
#X text 186 203 beat counter;
#X obj 174 315 count;
#X obj 111 271 select 1;
#X obj 83 230 t f f;
#X obj 87 403 outlet;
#X obj 174 403 outlet;
#X obj 31 19 inlet bang;
#X obj 135 21 inlet measure;
#X obj 301 19 inlet reset;
#X obj 83 202 limitedcount \$1;
#X connect 0 0 6 0;
#X connect 3 0 7 0;
#X connect 4 0 3 0;
#X connect 5 0 0 0;
#X connect 5 1 4 0;
#X connect 8 0 11 0;
#X connect 9 0 11 2;
#X connect 10 0 11 1;
#X connect 10 0 3 1;
#X connect 11 0 5 0;
