#N canvas 623 95 450 300 10;
#X obj 31 24 inlet;
#X obj 31 52 % 12;
#X obj 31 80 select 1 2 3 4 5 6 7 8 9 10 11 0;
#X msg 37 152 1;
#X msg 114 153 4;
#X msg 175 155 5;
#X obj 108 239 outlet;
#X connect 0 0 1 0;
#X connect 1 0 2 0;
#X connect 2 0 3 0;
#X connect 2 1 3 0;
#X connect 2 2 3 0;
#X connect 2 3 3 0;
#X connect 2 4 4 0;
#X connect 2 5 4 0;
#X connect 2 6 3 0;
#X connect 2 7 3 0;
#X connect 2 8 5 0;
#X connect 2 9 4 0;
#X connect 2 10 3 0;
#X connect 2 11 5 0;
#X connect 3 0 6 0;
#X connect 4 0 6 0;
#X connect 5 0 6 0;
