#N canvas 157 23 1051 741 10;
#X obj 50 190 print intakt;
#X obj 156 190 print takt;
#X obj 37 158 beat-and-measure 4;
#X obj 21 98 bng 15 250 50 0 empty empty beat_it 17 7 0 10 -258113
-1 -1;
#X obj 142 250 bluesmap;
#X obj 142 416 print TSD;
#X obj 364 213 bng 15 250 50 0 empty empty empty 17 7 0 10 -262144
-1 -1;
#X msg 640 268 8;
#X obj 883 246 vradio 15 1 0 12 empty empty Scale 0 -8 0 10 -261234
-1 -1 5;
#X obj 934 497 v scaleshift;
#X obj 142 217 + 1;
#X obj 142 272 t b f;
#X obj 142 391 v next-chord;
#X obj 400 268 random-interval;
#X obj 491 399 v currentnote;
#X msg 602 268 3;
#X msg 569 268 5;
#X msg 516 268 4;
#X obj 400 714 print current;
#X msg 986 15 \; reset 1;
#X obj 89 81 r reset;
#X obj 918 524 notenamemap;
#X obj 918 552 print scale;
#X obj 883 470 t f f f f;
#X obj 784 168 r reset;
#X obj 784 190 t b b b b b b b b;
#X text 902 247 C;
#X text 902 263 C#;
#X text 904 277 D;
#X text 904 293 D#;
#X text 903 307 E;
#X text 903 322 F;
#X text 904 337 F#;
#X text 904 351 G;
#X text 904 364 G#;
#X text 903 382 A;
#X text 902 396 Bb;
#X text 902 410 B;
#X obj 917 161 bng 15 250 50 0 empty empty empty 17 7 0 10 -262144
-1 -1;
#X obj 985 162 bng 15 250 50 0 empty empty empty 17 7 0 10 -262144
-1 -1;
#X obj 912 91 bng 15 250 50 0 empty empty empty 17 7 0 10 -262144 -1
-1;
#X obj 913 118 v tonic;
#X obj 916 189 v subdom;
#X obj 984 188 v dom;
#N canvas 0 22 247 365 setup 0;
#X obj 13 6 inlet;
#X obj 13 307 + 36;
#X obj 13 329 v currentnote;
#X obj 13 92 v scaleshift;
#X obj 184 148 v tonic;
#X obj 105 147 v tonic;
#X obj 105 169 + 5;
#X obj 105 213 v subdom;
#X obj 105 191 % 12;
#X obj 39 147 v tonic;
#X obj 39 191 % 12;
#X obj 13 114 t f b b b b b b b b b b b b f;
#X obj 39 169 + 7;
#X obj 39 213 v dom;
#X connect 0 0 3 0;
#X connect 1 0 2 0;
#X connect 3 0 11 0;
#X connect 5 0 6 0;
#X connect 6 0 8 0;
#X connect 8 0 7 0;
#X connect 9 0 12 0;
#X connect 10 0 13 0;
#X connect 11 0 1 0;
#X connect 11 2 9 0;
#X connect 11 7 5 0;
#X connect 11 13 4 0;
#X connect 12 0 10 0;
#X restore 784 244 pd setup;
#X obj 502 497 hradio 15 1 0 2 empty empty up_down 0 -8 0 10 -262144
-1 -1 0;
#X obj 572 497 hradio 15 1 0 2 empty empty dur_moll 0 -8 0 10 -262144
-1 -1 0;
#X obj 502 517 v updown;
#X obj 572 517 v durmoll;
#X obj 400 204 r random;
#X obj 400 226 t b b;
#X obj 76 238 s random;
#X obj 37 216 sel 0 1;
#X msg 643 405 4;
#X msg 653 428 5;
#X msg 660 451 6;
#X msg 668 474 8;
#X obj 89 132 v ms;
#X obj 643 517 v ms;
#X obj 89 103 t b b b b;
#X obj 643 381 loadbang;
#X obj 56 260 v nextchord;
#X obj 56 282 v currentnote;
#X obj 37 303 v nextchord;
#X obj 37 325 - 1;
#X obj 37 347 v currentnote;
#N canvas 21 424 596 338 next-chord 0;
#X obj 34 9 inlet;
#X obj 50 169 util-interval;
#X msg 50 146 3;
#X obj 125 10 inlet;
#X obj 125 92 + 36;
#X obj 34 71 loop 3;
#X obj 144 186 list prepend;
#X obj 225 186 t l;
#X obj 34 236 list append;
#X obj 125 114 t f f b;
#X obj 34 258 outlet;
#X obj 34 38 t b b;
#X obj 125 70 f;
#X connect 0 0 11 0;
#X connect 1 0 6 0;
#X connect 2 0 1 0;
#X connect 3 0 12 0;
#X connect 4 0 9 0;
#X connect 5 0 8 0;
#X connect 5 1 2 0;
#X connect 6 0 7 0;
#X connect 6 0 8 1;
#X connect 7 0 6 1;
#X connect 8 0 10 0;
#X connect 9 0 1 1;
#X connect 9 1 6 0;
#X connect 9 2 6 1;
#X connect 11 0 5 0;
#X connect 11 1 12 0;
#X connect 12 0 4 0;
#X restore 279 358 pd next-chord;
#X obj 491 318 t f b;
#X obj 518 342 v currentnote;
#X obj 491 369 util-interval;
#X obj 354 329 v tonic;
#X obj 354 309 bng 15 250 50 0 empty empty empty 17 7 0 10 -262144
-1 -1;
#X obj 279 328 bng 15 250 50 0 empty empty empty 17 7 0 10 -262144
-1 -1;
#X obj 388 398 print chord;
#N canvas 0 22 681 540 choose-from-chord 0;
#X obj 26 11 inlet;
#X obj 550 35 unpack 0 0 0 0;
#X obj 550 121 v c1;
#X obj 577 101 v c2;
#X obj 631 58 v c4;
#X obj 604 79 v c3;
#X obj 492 13 inlet a;
#X obj 550 13 inlet b;
#X obj 26 39 v c1;
#X obj 26 498 outlet;
#X obj 492 170 v tmp;
#X obj 113 87 v c2;
#X obj 200 133 v c3;
#X obj 287 178 v c4;
#X obj 401 329 v tmp;
#X obj 374 303 t b f;
#X obj 374 353 s again;
#X obj 68 12 r again;
#X obj 200 156 util-checkchord;
#X obj 374 256 v tmp;
#X obj 287 201 util-checkchord;
#X obj 113 110 util-checkchord;
#X obj 26 64 util-checkchord;
#X obj 374 232 t b;
#X obj 374 279 util-updown 1 1;
#X obj 492 144 util-updown 2 2;
#X connect 0 0 8 0;
#X connect 1 0 2 0;
#X connect 1 1 3 0;
#X connect 1 2 5 0;
#X connect 1 3 4 0;
#X connect 6 0 25 0;
#X connect 7 0 1 0;
#X connect 8 0 22 0;
#X connect 11 0 21 0;
#X connect 12 0 18 0;
#X connect 13 0 20 0;
#X connect 15 0 16 0;
#X connect 15 1 14 0;
#X connect 17 0 8 0;
#X connect 18 0 9 0;
#X connect 18 1 13 0;
#X connect 19 0 24 0;
#X connect 20 0 9 0;
#X connect 20 1 23 0;
#X connect 21 0 9 0;
#X connect 21 1 12 0;
#X connect 22 0 9 0;
#X connect 22 1 11 0;
#X connect 23 0 19 0;
#X connect 24 0 15 0;
#X connect 25 0 10 0;
#X restore 279 473 pd choose-from-chord;
#X obj 298 421 v currentnote;
#X obj 191 494 print preval;
#X obj 279 380 t b b l;
#X obj 358 537 print after;
#X obj 846 122 r key;
#X obj 10 67 r beat;
#X obj 502 456 r updown;
#X obj 572 456 r durmoll;
#X obj 10 131 t b b;
#X obj 10 485 v currentnote;
#X obj 10 507 makenote 6.2 300;
#X obj 279 518 v nextchord;
#X msg 487 243 10 3 5 1 1;
#X connect 2 0 0 0;
#X connect 2 0 52 0;
#X connect 2 1 1 0;
#X connect 2 1 10 0;
#X connect 3 0 83 0;
#X connect 4 0 11 0;
#X connect 6 0 13 0;
#X connect 7 0 67 0;
#X connect 8 0 23 0;
#X connect 10 0 4 0;
#X connect 11 0 12 0;
#X connect 11 0 66 0;
#X connect 11 1 12 0;
#X connect 11 1 66 1;
#X connect 12 0 5 0;
#X connect 13 0 67 0;
#X connect 15 0 67 0;
#X connect 16 0 67 0;
#X connect 17 0 67 0;
#X connect 20 0 59 0;
#X connect 21 0 22 0;
#X connect 23 2 21 0;
#X connect 23 3 9 0;
#X connect 24 0 25 0;
#X connect 25 0 44 0;
#X connect 25 7 8 0;
#X connect 38 0 42 0;
#X connect 39 0 43 0;
#X connect 40 0 41 0;
#X connect 41 0 8 0;
#X connect 42 0 8 0;
#X connect 43 0 8 0;
#X connect 45 0 47 0;
#X connect 46 0 48 0;
#X connect 49 0 50 0;
#X connect 50 0 13 0;
#X connect 50 1 87 0;
#X connect 52 0 63 0;
#X connect 52 1 61 0;
#X connect 52 2 51 0;
#X connect 53 0 58 0;
#X connect 54 0 58 0;
#X connect 55 0 58 0;
#X connect 56 0 58 0;
#X connect 57 0 2 1;
#X connect 59 0 57 0;
#X connect 59 3 2 2;
#X connect 60 0 53 0;
#X connect 61 0 62 0;
#X connect 63 0 64 0;
#X connect 64 0 65 0;
#X connect 66 0 77 0;
#X connect 67 0 69 0;
#X connect 67 1 68 0;
#X connect 68 0 69 1;
#X connect 69 0 14 0;
#X connect 70 0 66 1;
#X connect 71 0 70 0;
#X connect 72 0 66 0;
#X connect 74 0 78 0;
#X connect 74 0 86 0;
#X connect 75 0 76 0;
#X connect 75 0 74 1;
#X connect 77 0 74 0;
#X connect 77 1 75 0;
#X connect 77 2 74 2;
#X connect 77 2 73 0;
#X connect 79 0 8 0;
#X connect 80 0 83 0;
#X connect 81 0 45 0;
#X connect 82 0 46 0;
#X connect 83 0 84 0;
#X connect 83 1 2 0;
#X connect 84 0 85 0;
#X connect 84 0 18 0;
#X connect 87 0 13 1;
