#N canvas 157 23 1067 755 10;
#X obj 50 190 print intakt;
#X obj 37 158 beat-and-measure 4;
#X obj 21 98 bng 15 250 50 0 empty empty beat_it 17 7 0 10 -258113
-1 -1;
#X obj 142 203 bluesmap;
#X obj 162 416 print TSD;
#X obj 883 246 vradio 15 1 0 12 empty empty Scale 0 -8 0 10 -261234
-1 -1 8;
#X obj 934 497 v scaleshift;
#X obj 142 181 + 1;
#X obj 156 332 t b f;
#X obj 162 391 v next-chord;
#X msg 986 15 \; reset 1;
#X obj 89 81 r reset;
#X obj 918 524 notenamemap;
#X obj 918 552 print scale;
#X obj 883 470 t f f f f;
#X obj 784 168 r reset;
#X obj 784 190 t b b b b b b b b;
#X text 902 247 C;
#X text 902 263 C#;
#X text 904 277 D;
#X text 904 293 D#;
#X text 903 307 E;
#X text 903 322 F;
#X text 904 337 F#;
#X text 904 351 G;
#X text 904 364 G#;
#X text 903 382 A;
#X text 902 396 Bb;
#X text 902 410 B;
#X obj 917 161 bng 15 250 50 0 empty empty empty 17 7 0 10 -262144
-1 -1;
#X obj 985 162 bng 15 250 50 0 empty empty empty 17 7 0 10 -262144
-1 -1;
#X obj 912 91 bng 15 250 50 0 empty empty empty 17 7 0 10 -262144 -1
-1;
#X obj 913 118 v tonic;
#X obj 916 189 v subdom;
#X obj 984 188 v dom;
#N canvas 0 22 247 365 setup 0;
#X obj 13 6 inlet;
#X obj 13 307 + 36;
#X obj 13 329 v currentnote;
#X obj 13 92 v scaleshift;
#X obj 184 148 v tonic;
#X obj 105 147 v tonic;
#X obj 105 169 + 5;
#X obj 105 213 v subdom;
#X obj 105 191 % 12;
#X obj 39 147 v tonic;
#X obj 39 191 % 12;
#X obj 13 114 t f b b b b b b b b b b b b f;
#X obj 39 169 + 7;
#X obj 39 213 v dom;
#X connect 0 0 3 0;
#X connect 1 0 2 0;
#X connect 3 0 11 0;
#X connect 5 0 6 0;
#X connect 6 0 8 0;
#X connect 8 0 7 0;
#X connect 9 0 12 0;
#X connect 10 0 13 0;
#X connect 11 0 1 0;
#X connect 11 2 9 0;
#X connect 11 7 5 0;
#X connect 11 13 4 0;
#X connect 12 0 10 0;
#X restore 784 244 pd setup;
#X obj 642 382 hradio 15 1 0 2 empty empty up_down 0 -8 0 10 -262144
-1 -1 1;
#X obj 712 382 hradio 15 1 0 2 empty empty dur_moll 0 -8 0 10 -262144
-1 -1 0;
#X obj 712 402 v durmoll;
#X obj 37 216 sel 0 1;
#X msg 783 290 4;
#X msg 793 313 5;
#X msg 800 336 6;
#X msg 808 359 8;
#X obj 89 132 v ms;
#X obj 783 402 v ms;
#X obj 89 103 t b b b b;
#X obj 783 266 loadbang;
#X obj 279 328 bng 15 250 50 0 empty empty empty 17 7 0 10 -262144
-1 -1;
#X obj 388 398 print chord;
#X obj 298 421 v currentnote;
#X obj 191 494 print preval;
#X obj 279 380 t b b l;
#X obj 358 537 print after;
#X obj 846 122 r key;
#X obj 10 67 r beat;
#X obj 712 341 r durmoll;
#X obj 10 131 t b b;
#X obj 10 485 v currentnote;
#X obj 279 518 v nextchord;
#N canvas 0 191 450 300 nextnote 0;
#X obj 70 98 random-interval;
#X obj 70 56 t b b;
#X obj 161 148 t f b;
#X obj 188 172 v currentnote;
#X msg 157 73 10 3 5 1 1;
#X obj 29 12 inlet;
#X obj 289 11 inlet;
#X obj 161 229 set-current 30 60;
#X obj 161 199 util-interval;
#X connect 0 0 2 0;
#X connect 1 0 0 0;
#X connect 1 1 4 0;
#X connect 2 0 8 0;
#X connect 2 1 3 0;
#X connect 3 0 8 1;
#X connect 4 0 0 1;
#X connect 5 0 1 0;
#X connect 6 0 2 0;
#X connect 8 0 7 0;
#X restore 671 531 pd nextnote;
#X obj 671 509 bng 15 250 50 0 empty empty empty 17 7 0 10 -262144
-1 -1;
#X msg 768 514 8;
#X msg 756 494 3;
#X msg 745 474 5;
#X msg 734 453 4;
#X obj 70 34 r random;
#X obj 645 489 r random;
#X obj 142 225 select 1 5 7;
#X obj 142 270 v tonic;
#X obj 195 270 v subdom;
#X obj 255 271 v dom;
#X obj 307 312 t b f;
#X obj 142 248 t b;
#X obj 194 249 t b;
#X obj 255 249 t b;
#X obj 279 358 util-next-chord;
#X obj 76 238 s random;
#X obj 56 283 v nextchord;
#X obj 37 326 v nextchord;
#X obj 37 348 util-updown 1 1;
#X obj 609 402 updown;
#X obj 613 322 r up;
#X msg 648 343 0;
#X obj 648 322 r down;
#X msg 613 343 1;
#N canvas 0 22 211 176 soundout 0;
#X obj 15 59 sampleplayer doublebass;
#X obj 15 97 output~;
#X obj 150 14 r reset;
#X msg 150 37 99;
#X obj 15 13 inlet;
#X obj 24 37 debugdump noteout;
#X connect 0 0 1 0;
#X connect 0 0 1 1;
#X connect 0 1 1 2;
#X connect 2 0 3 0;
#X connect 3 0 0 1;
#X connect 4 0 0 0;
#X connect 4 0 5 0;
#X restore 10 531 pd soundout;
#X obj 923 33 v debug;
#X obj 923 12 tgl 15 0 empty empty empty 17 7 0 10 -262144 -1 -1 1
1;
#X obj 56 259 t b;
#X obj 37 241 t b;
#X obj 279 473 util-next-in-chord;
#X obj 37 370 set-current 30 60;
#X obj 56 305 set-current 30 60;
#X connect 1 0 0 0;
#X connect 1 0 39 0;
#X connect 1 1 7 0;
#X connect 2 0 57 0;
#X connect 3 0 68 0;
#X connect 5 0 14 0;
#X connect 7 0 3 0;
#X connect 8 0 9 0;
#X connect 8 0 76 0;
#X connect 8 1 9 0;
#X connect 9 0 4 0;
#X connect 11 0 46 0;
#X connect 12 0 13 0;
#X connect 14 2 12 0;
#X connect 14 3 6 0;
#X connect 15 0 16 0;
#X connect 16 0 35 0;
#X connect 16 7 5 0;
#X connect 29 0 33 0;
#X connect 30 0 34 0;
#X connect 31 0 32 0;
#X connect 32 0 5 0;
#X connect 33 0 5 0;
#X connect 34 0 5 0;
#X connect 36 0 81 1;
#X connect 37 0 38 0;
#X connect 39 0 90 0;
#X connect 39 1 89 0;
#X connect 39 2 77 0;
#X connect 40 0 45 0;
#X connect 41 0 45 0;
#X connect 42 0 45 0;
#X connect 43 0 45 0;
#X connect 44 0 1 1;
#X connect 46 0 44 0;
#X connect 46 3 1 2;
#X connect 47 0 40 0;
#X connect 48 0 76 0;
#X connect 50 0 51 0;
#X connect 50 0 91 1;
#X connect 52 0 91 0;
#X connect 52 1 50 0;
#X connect 52 2 49 0;
#X connect 52 2 91 2;
#X connect 54 0 5 0;
#X connect 55 0 57 0;
#X connect 56 0 37 0;
#X connect 57 0 58 0;
#X connect 57 1 1 0;
#X connect 58 0 86 0;
#X connect 61 0 60 0;
#X connect 62 0 60 1;
#X connect 63 0 60 1;
#X connect 64 0 60 1;
#X connect 65 0 60 1;
#X connect 67 0 60 0;
#X connect 68 0 73 0;
#X connect 68 1 74 0;
#X connect 68 2 75 0;
#X connect 69 0 72 0;
#X connect 70 0 72 0;
#X connect 71 0 72 0;
#X connect 72 0 76 0;
#X connect 72 1 76 1;
#X connect 73 0 69 0;
#X connect 74 0 70 0;
#X connect 75 0 71 0;
#X connect 76 0 52 0;
#X connect 78 0 93 0;
#X connect 79 0 80 0;
#X connect 80 0 92 0;
#X connect 82 0 85 0;
#X connect 83 0 36 0;
#X connect 84 0 83 0;
#X connect 85 0 36 0;
#X connect 88 0 87 0;
#X connect 89 0 78 0;
#X connect 90 0 79 0;
#X connect 91 0 53 0;
#X connect 91 0 59 0;
