#N canvas 429 334 598 391 10;
#X obj 53 31 r fromGUI;
#X obj 53 53 route list;
#X obj 53 133 print knopf:;
#X obj 85 224 select 0 1;
#X obj 177 328 s toGUI;
#X msg 231 274 list /upback image 01-69p.png;
#X msg 43 274 list /upback image 01-69.png;
#X obj 53 75 route /upback /downback;
#X obj 222 149 select 0 1;
#X msg 180 199 list /downback image 01-69.png;
#X msg 368 199 list /downback image 01-69p.png;
#X connect 0 0 1 0;
#X connect 1 0 7 0;
#X connect 3 0 6 0;
#X connect 3 1 5 0;
#X connect 5 0 4 0;
#X connect 6 0 4 0;
#X connect 7 0 2 0;
#X connect 7 0 3 0;
#X connect 7 1 8 0;
#X connect 8 0 9 0;
#X connect 8 1 10 0;
