#N canvas 437 366 598 391 10;
#X obj 53 53 route list;
#X obj 54 115 select 0 1;
#X msg 83 236 list /upback image 01-69p.png;
#X msg 56 270 list /upback image 01-69.png;
#X obj 222 149 select 0 1;
#X msg 222 199 list /downback image 01-69.png;
#X msg 250 175 list /downback image 01-69p.png;
#X obj 166 358 outlet;
#X obj 53 31 inlet;
#X obj 53 75 route /up /down;
#X connect 0 0 9 0;
#X connect 1 0 3 0;
#X connect 1 1 2 0;
#X connect 2 0 7 0;
#X connect 3 0 7 0;
#X connect 4 0 5 0;
#X connect 4 1 6 0;
#X connect 5 0 7 0;
#X connect 6 0 7 0;
#X connect 8 0 0 0;
#X connect 9 0 1 0;
#X connect 9 1 4 0;
