#N canvas 253 58 1055 705 10;
#X floatatom 26 272 5 0 0 0 - - -, f 5;
#X obj 97 12 inlet;
#X obj 100 99 select 0 1 2 3 4 5 6 7 8 9 10 11;
#X obj 51 661 outlet;
#X obj 213 466 unpack f f f f f f f f f f f f;
#X obj 279 131 float 11;
#X obj 262 153 float 10;
#X obj 243 178 float 9;
#X obj 226 203 float 8;
#X obj 210 228 float 7;
#X obj 190 257 float 6;
#X obj 176 285 float 5;
#X obj 153 319 float 4;
#X obj 139 346 float 3;
#X obj 125 372 float 2;
#X obj 111 403 float 1;
#X obj 94 434 float 0;
#X text 135 11 current position in scale;
#X text 77 507 next position in scale;
#X obj 409 13 inlet;
#X floatatom 486 290 5 0 0 0 - - -, f 5;
#X obj 560 117 select 0 1 2 3 4 5 6 7 8 9 10 11;
#X obj 673 484 unpack f f f f f f f f f f f f;
#X obj 739 149 float 11;
#X obj 722 171 float 10;
#X obj 703 196 float 9;
#X obj 686 221 float 8;
#X obj 670 246 float 7;
#X obj 650 275 float 6;
#X obj 636 303 float 5;
#X obj 613 337 float 4;
#X obj 599 364 float 3;
#X obj 585 390 float 2;
#X obj 571 421 float 1;
#X obj 554 452 float 0;
#X obj 680 12 inlet;
#X text 719 14 interval to next position down;
#X text 448 12 interval to next position up;
#X text 521 499 next down;
#X msg 696 581 -1 -1 -2 -1 -2 -1 -1 -2 -1 -2 -1 -2;
#X msg 218 551 2 1 2 1 1 2 1 2 1 2 1 1;
#X obj 78 610 f;
#X obj 22 40 s \$0-base;
#X obj 94 565 r \$0-base;
#X obj 51 566 t f b;
#X obj 52 636 +;
#X obj 494 643 outlet;
#X obj 521 592 f;
#X obj 537 547 r \$0-base;
#X obj 494 548 t f b;
#X obj 495 618 +;
#X obj 98 40 mod 12;
#X connect 0 0 44 0;
#X connect 1 0 42 0;
#X connect 1 0 51 0;
#X connect 2 0 16 0;
#X connect 2 1 15 0;
#X connect 2 2 14 0;
#X connect 2 3 13 0;
#X connect 2 4 12 0;
#X connect 2 5 11 0;
#X connect 2 6 10 0;
#X connect 2 7 9 0;
#X connect 2 8 8 0;
#X connect 2 9 7 0;
#X connect 2 10 6 0;
#X connect 2 11 5 0;
#X connect 4 0 16 1;
#X connect 4 1 15 1;
#X connect 4 2 14 1;
#X connect 4 3 13 1;
#X connect 4 4 12 1;
#X connect 4 5 11 1;
#X connect 4 6 10 1;
#X connect 4 7 9 1;
#X connect 4 8 8 1;
#X connect 4 9 7 1;
#X connect 4 10 6 1;
#X connect 4 11 5 1;
#X connect 5 0 0 0;
#X connect 6 0 0 0;
#X connect 7 0 0 0;
#X connect 8 0 0 0;
#X connect 9 0 0 0;
#X connect 10 0 0 0;
#X connect 11 0 0 0;
#X connect 12 0 0 0;
#X connect 13 0 0 0;
#X connect 14 0 0 0;
#X connect 15 0 0 0;
#X connect 16 0 0 0;
#X connect 19 0 4 0;
#X connect 20 0 49 0;
#X connect 21 0 34 0;
#X connect 21 1 33 0;
#X connect 21 2 32 0;
#X connect 21 3 31 0;
#X connect 21 4 30 0;
#X connect 21 5 29 0;
#X connect 21 6 28 0;
#X connect 21 7 27 0;
#X connect 21 8 26 0;
#X connect 21 9 25 0;
#X connect 21 10 24 0;
#X connect 21 11 23 0;
#X connect 22 0 34 1;
#X connect 22 1 33 1;
#X connect 22 2 32 1;
#X connect 22 3 31 1;
#X connect 22 4 30 1;
#X connect 22 5 29 1;
#X connect 22 6 28 1;
#X connect 22 7 27 1;
#X connect 22 8 26 1;
#X connect 22 9 25 1;
#X connect 22 10 24 1;
#X connect 22 11 23 1;
#X connect 23 0 20 0;
#X connect 24 0 20 0;
#X connect 25 0 20 0;
#X connect 26 0 20 0;
#X connect 27 0 20 0;
#X connect 28 0 20 0;
#X connect 29 0 20 0;
#X connect 30 0 20 0;
#X connect 31 0 20 0;
#X connect 32 0 20 0;
#X connect 33 0 20 0;
#X connect 34 0 20 0;
#X connect 35 0 22 0;
#X connect 39 0 22 0;
#X connect 40 0 4 0;
#X connect 41 0 45 1;
#X connect 43 0 41 1;
#X connect 44 0 45 0;
#X connect 44 1 41 0;
#X connect 45 0 3 0;
#X connect 47 0 50 1;
#X connect 48 0 47 1;
#X connect 49 0 50 0;
#X connect 49 1 47 0;
#X connect 50 0 46 0;
#X connect 51 0 2 0;
#X connect 51 0 21 0;
