#N canvas 439 40 298 465 10;
#X floatatom 82 180 0 0 0 0 - - -;
#X floatatom 42 179 0 0 0 0 - - -;
#X obj 42 111 f;
#X obj 42 153 div;
#X obj 82 154 mod;
#X msg 102 83 12;
#X obj 85 52 loadbang;
#X obj 82 208 select 0 1 2 3 4 5 6 7 8 9 10 11;
#X msg 52 241 C;
#X msg 76 267 C#;
#X msg 101 241 D;
#X msg 124 267 D#;
#X msg 146 241 E;
#X msg 170 267 F;
#X msg 194 241 F#;
#X msg 170 314 G;
#X msg 222 289 G#;
#X msg 152 314 A;
#X msg 246 314 B;
#X obj 42 201 - 2;
#X obj 41 357 pack s f;
#X obj 12 19 inlet;
#X obj 38 424 outlet;
#X obj 116 378 print notename;
#X msg 200 314 A#;
#X connect 0 0 7 0;
#X connect 1 0 19 0;
#X connect 2 0 3 0;
#X connect 2 0 4 0;
#X connect 3 0 1 0;
#X connect 4 0 0 0;
#X connect 5 0 3 1;
#X connect 5 0 4 1;
#X connect 6 0 5 0;
#X connect 7 0 8 0;
#X connect 7 1 9 0;
#X connect 7 2 10 0;
#X connect 7 3 11 0;
#X connect 7 4 12 0;
#X connect 7 5 13 0;
#X connect 7 6 14 0;
#X connect 7 7 15 0;
#X connect 7 8 16 0;
#X connect 7 9 17 0;
#X connect 7 10 24 0;
#X connect 7 11 18 0;
#X connect 8 0 20 0;
#X connect 9 0 20 0;
#X connect 10 0 20 0;
#X connect 11 0 20 0;
#X connect 12 0 20 0;
#X connect 13 0 20 0;
#X connect 14 0 20 0;
#X connect 15 0 20 0;
#X connect 16 0 20 0;
#X connect 17 0 20 0;
#X connect 18 0 20 0;
#X connect 19 0 20 1;
#X connect 20 0 22 0;
#X connect 20 0 23 0;
#X connect 21 0 2 0;
#X connect 24 0 20 0;
