#N canvas 4 23 471 352 10;
#X obj 20 39 inlet;
#X obj 101 39 inlet;
#X obj 20 204 outlet;
#X obj 71 154 t b;
#X obj 71 204 outlet;
#X obj 20 109 <, f 14;
#X obj 20 131 sel 0, f 9;
#X obj 101 61 t b f;
#X obj 20 61 t f f;
#X obj 20 153 t b;
#X obj 47 85 v \$0-t;
#X obj 101 84 v \$0-c;
#X obj 20 177 v \$0-t;
#X obj 71 176 v \$0-c;
#X connect 0 0 8 0;
#X connect 1 0 7 0;
#X connect 3 0 13 0;
#X connect 5 0 6 0;
#X connect 6 0 9 0;
#X connect 6 1 3 0;
#X connect 7 0 11 0;
#X connect 7 1 11 0;
#X connect 8 0 5 0;
#X connect 8 1 10 0;
#X connect 9 0 12 0;
#X connect 11 0 5 1;
#X connect 12 0 2 0;
#X connect 13 0 4 0;
