#N canvas 12 295 453 430 10;
#X obj 51 25 inlet;
#X obj 51 335 outlet;
#X obj 51 126 random 16;
#X obj 52 169 moses 11;
#X obj 97 200 moses 13;
#X obj 142 228 moses 14;
#X obj 187 251 moses 15;
#X msg 52 200 2;
#X msg 97 228 3;
#X msg 142 250 4;
#X msg 187 274 5;
#X msg 232 297 6;
#X obj 233 17 inlet;
#X obj 52 51 t b b b b b;
#X obj 221 146 +;
#X obj 253 182 +;
#X obj 297 222 +;
#X obj 233 52 unpack f f f f f;
#X obj 220 101 f 11;
#X obj 261 102 f 2;
#X obj 300 102 f 1;
#X obj 344 105 f 1;
#X connect 0 0 13 0;
#X connect 2 0 3 0;
#X connect 3 0 7 0;
#X connect 3 1 4 0;
#X connect 4 0 8 0;
#X connect 4 1 5 0;
#X connect 5 0 9 0;
#X connect 5 1 6 0;
#X connect 6 0 10 0;
#X connect 6 1 11 0;
#X connect 7 0 1 0;
#X connect 8 0 1 0;
#X connect 9 0 1 0;
#X connect 10 0 1 0;
#X connect 11 0 1 0;
#X connect 12 0 17 0;
#X connect 13 0 2 0;
#X connect 13 1 21 0;
#X connect 13 2 20 0;
#X connect 13 3 19 0;
#X connect 13 4 18 0;
#X connect 14 0 4 1;
#X connect 14 0 15 1;
#X connect 15 0 5 1;
#X connect 15 0 16 1;
#X connect 16 0 6 1;
#X connect 17 0 2 1;
#X connect 17 1 18 1;
#X connect 17 2 19 1;
#X connect 17 3 20 1;
#X connect 17 4 21 1;
#X connect 18 0 3 1;
#X connect 18 0 14 1;
#X connect 19 0 14 0;
#X connect 20 0 15 0;
#X connect 21 0 16 0;
