#N canvas 388 146 849 592 10;
#X obj 149 49 inlet note;
#N canvas 0 22 450 278 (subpatch) 0;
#X array \$0-array1 125241 float 2;
#X coords 0 1 125241 -1 200 140 1;
#X restore 574 32 graph;
#X obj 319 375 soundfiler;
#X msg 85 39 40;
#X msg 38 20 54;
#N canvas 0 22 450 278 (subpatch) 0;
#X array \$0-array2 131727 float 2;
#X coords 0 1 131727 -1 200 140 1;
#X restore 576 208 graph;
#X obj 212 217 pack symbol symbol;
#X obj 395 122 vradio 15 1 0 3 empty empty empty 0 -8 0 10 -262144
-1 -1 1;
#N canvas 0 22 450 278 (subpatch) 0;
#X array \$0-array0 125241 float 2;
#X coords 0 1 125241 -1 200 140 1;
#X restore 572 374 graph;
#X obj 502 110 + 1;
#X obj 451 108 float;
#X msg 450 84 1;
#X obj 497 132 mod 3;
#X msg 451 162 set \$1;
#X obj 176 81 t b b b f;
#X floatatom 451 130 5 0 0 0 - - -, f 5;
#X msg 290 330 read -resize \$1 \$2;
#X obj 223 181 f;
#X obj 49 194 sel 0 1 2;
#X obj 116 143 makefilename ./\$1/%d.wav;
#X obj 43 166 print fn;
#X obj 58 456 outlet~;
#X obj 289 457 outlet;
#X obj 289 403 inlet passthru volume;
#X obj 229 371 bang;
#X floatatom 266 431 5 0 0 0 - - -, f 5;
#X obj 315 189 makefilename \$0-array%d;
#X obj 53 252 tabplay~ \$0-array0;
#X obj 82 281 tabplay~ \$0-array1;
#X obj 153 307 tabplay~ \$0-array2;
#X connect 0 0 14 0;
#X connect 0 0 19 0;
#X connect 3 0 14 0;
#X connect 4 0 14 0;
#X connect 6 0 16 0;
#X connect 7 0 17 1;
#X connect 7 0 26 0;
#X connect 9 0 10 1;
#X connect 10 0 9 0;
#X connect 10 0 12 0;
#X connect 10 0 15 0;
#X connect 11 0 10 0;
#X connect 12 0 13 0;
#X connect 13 0 7 0;
#X connect 14 0 17 0;
#X connect 14 1 7 0;
#X connect 14 2 10 0;
#X connect 14 3 19 0;
#X connect 16 0 2 0;
#X connect 17 0 18 0;
#X connect 18 0 24 0;
#X connect 18 0 27 0;
#X connect 18 1 24 0;
#X connect 18 1 28 0;
#X connect 18 2 24 0;
#X connect 18 2 29 0;
#X connect 19 0 6 0;
#X connect 19 0 20 0;
#X connect 23 0 25 0;
#X connect 24 0 25 0;
#X connect 25 0 22 0;
#X connect 26 0 6 1;
#X connect 27 0 21 0;
#X connect 28 0 21 0;
#X connect 29 0 21 0;
