#N canvas 318 34 849 592 10;
#X obj 149 49 inlet note;
#X obj 258 58 inlet ignore;
#X obj 396 425 inlet ignore 2;
#N canvas 0 22 450 278 (subpatch) 0;
#X array array1 114647 float 2;
#X coords 0 1 114647 -1 200 140 1;
#X restore 574 32 graph;
#X obj 319 375 soundfiler;
#X msg 85 39 40;
#X msg 38 20 54;
#N canvas 0 22 450 278 (subpatch) 0;
#X array array2 125081 float 2;
#X coords 0 1 125081 -1 200 140 1;
#X restore 576 208 graph;
#X obj 315 189 makefilename array%d;
#X obj 212 217 pack symbol symbol;
#X obj 395 122 vradio 15 1 0 3 empty empty empty 0 -8 0 10 -262144
-1 -1 2;
#N canvas 0 22 450 278 (subpatch) 0;
#X array array0 114647 float 2;
#X coords 0 1 114647 -1 200 140 1;
#X restore 572 374 graph;
#X obj 502 110 + 1;
#X obj 451 108 float;
#X msg 450 84 1;
#X obj 497 132 mod 3;
#X msg 451 162 set \$1;
#X obj 176 81 t b b b f;
#X floatatom 451 130 5 0 0 0 - - -, f 5;
#X msg 290 330 read -resize \$1 \$2;
#X obj 53 252 tabplay~ array0;
#X obj 82 281 tabplay~ array1;
#X obj 153 307 tabplay~ array2;
#X obj 223 181 f;
#X obj 49 194 sel 0 1 2;
#X obj 116 143 makefilename ./\$1/%d.wav;
#X obj 43 166 print fn;
#X obj 58 456 outlet~;
#X obj 397 448 outlet;
#X connect 0 0 17 0;
#X connect 0 0 25 0;
#X connect 2 0 28 0;
#X connect 5 0 17 0;
#X connect 6 0 17 0;
#X connect 8 0 9 1;
#X connect 9 0 19 0;
#X connect 10 0 8 0;
#X connect 10 0 23 1;
#X connect 12 0 13 1;
#X connect 13 0 12 0;
#X connect 13 0 15 0;
#X connect 13 0 18 0;
#X connect 14 0 13 0;
#X connect 15 0 16 0;
#X connect 16 0 10 0;
#X connect 17 0 23 0;
#X connect 17 1 10 0;
#X connect 17 2 13 0;
#X connect 17 3 25 0;
#X connect 19 0 4 0;
#X connect 20 0 27 0;
#X connect 21 0 27 0;
#X connect 22 0 27 0;
#X connect 23 0 24 0;
#X connect 24 0 20 0;
#X connect 24 1 21 0;
#X connect 24 2 22 0;
#X connect 25 0 9 0;
#X connect 25 0 26 0;
