#N canvas 0 22 906 460 10;
#X msg 17 100 2 1 2 1 1 2 1 2 1 2 1 1 dur-up;
#X msg 57 75 -1 -1 -2 -1 -2 -1 -1 -2 -1 -2 -1 -2 dur-down;
#X msg 331 103 2 1 1 2 1 2 1 1 2 1 2 1 moll-up;
#X msg 398 75 -2 -1 -2 -1 -1 -2 -1 -2 -1 -1 -2 -1 moll-down;
#X obj 57 39 t b;
#X obj 57 19 inlet dur;
#X obj 21 411 outlet up;
#X obj 618 404 outlet down;
#X obj 397 42 t b;
#X obj 396 20 inlet moll;
#X connect 0 0 6 0;
#X connect 1 0 7 0;
#X connect 2 0 6 0;
#X connect 3 0 7 0;
#X connect 4 0 0 0;
#X connect 4 0 1 0;
#X connect 5 0 4 0;
#X connect 8 0 2 0;
#X connect 8 0 3 0;
#X connect 9 0 8 0;
