#N canvas 3 23 750 642 10;
#N canvas 754 23 500 481 intervallierer 0;
#X obj 41 34 inlet;
#X obj 144 206 next-in-scale;
#X msg 182 143 2 1 2 1 1 2 1 2 1 2 1 1 dur-up;
#X msg 218 176 -1 -1 -2 -1 -2 -1 -1 -2 -1 -2 -1 -2 dur-down;
#X obj 117 144 mod 12;
#X obj 215 96 loadbang;
#X obj 165 232 inlet;
#X obj 129 289 f;
#X obj 207 289 f;
#X obj 164 418 outlet;
#X obj 110 336 f;
#X obj 164 373 +;
#X obj 172 322 t b f;
#X floatatom 94 399 5 0 0 0 - - -, f 5;
#X floatatom 38 190 5 0 0 0 - - -, f 5;
#X floatatom 12 84 5 0 0 0 - - -, f 5;
#X floatatom 245 320 5 0 0 0 - - -, f 5;
#X floatatom 67 318 5 0 0 0 - - -, f 5;
#X floatatom 110 235 5 0 0 0 - - -, f 5;
#X floatatom 240 234 5 0 0 0 - - -, f 5;
#X obj 183 90 bng 15 250 50 0 empty empty empty 17 7 0 10 -262144 -1
-1;
#X obj 164 256 sel 0 1;
#X floatatom 235 266 5 0 0 0 - - -, f 5;
#X connect 0 0 4 0;
#X connect 0 0 10 1;
#X connect 0 0 15 0;
#X connect 1 0 7 1;
#X connect 1 0 18 0;
#X connect 1 1 8 1;
#X connect 1 1 19 0;
#X connect 2 0 1 1;
#X connect 3 0 1 2;
#X connect 4 0 1 0;
#X connect 4 0 14 0;
#X connect 5 0 2 0;
#X connect 5 0 3 0;
#X connect 6 0 21 0;
#X connect 6 0 22 0;
#X connect 7 0 12 0;
#X connect 7 0 17 0;
#X connect 8 0 12 0;
#X connect 8 0 16 0;
#X connect 10 0 11 0;
#X connect 11 0 13 0;
#X connect 11 0 9 0;
#X connect 12 0 10 0;
#X connect 12 1 11 1;
#X connect 20 0 2 0;
#X connect 20 0 3 0;
#X connect 21 0 7 0;
#X connect 21 1 8 0;
#X restore 65 239 pd intervallierer;
#X msg 65 196 36;
#X floatatom 65 278 5 0 0 0 - - -, f 5;
#X obj 139 170 f;
#X msg 184 111 1;
#X msg 217 111 0;
#X obj 112 68 loop 1 2;
#X obj 33 240 f;
#X obj 137 195 t b f;
#X msg 93 32 2;
#X msg 128 33 4;
#X msg 170 34 7;
#X connect 0 0 2 0;
#X connect 0 0 7 1;
#X connect 1 0 0 0;
#X connect 3 0 8 0;
#X connect 4 0 3 1;
#X connect 5 0 3 1;
#X connect 6 1 3 0;
#X connect 7 0 0 0;
#X connect 8 0 7 0;
#X connect 8 1 0 1;
#X connect 9 0 6 0;
#X connect 10 0 6 0;
#X connect 11 0 6 0;
