#N canvas 0 22 362 609 10;
#X obj 37 30 inlet;
#X obj 37 266 v currentnote;
#X obj 56 172 < 30;
#X obj 37 52 t f f f;
#X obj 56 194 sel 1;
#X msg 56 216 0;
#X obj 56 238 s updown;
#X obj 76 107 sel 1;
#X obj 76 151 s updown;
#X obj 76 85 > 60;
#X msg 76 129 1;
#X connect 0 0 3 0;
#X connect 2 0 4 0;
#X connect 3 0 1 0;
#X connect 3 1 2 0;
#X connect 3 2 9 0;
#X connect 4 0 5 0;
#X connect 5 0 6 0;
#X connect 7 0 10 0;
#X connect 9 0 7 0;
#X connect 10 0 8 0;
