#N canvas 0 23 526 352 10;
#X obj 14 15 receive fromGUI;
#X obj 14 38 route list;
#X obj 14 82 s key;
#X obj 326 300 core;
#X text 363 300 actual functionality.;
#X obj 87 225 s up;
#X obj 60 204 t b b;
#X obj 107 161 t b b;
#X obj 134 182 s down;
#X obj 154 140 s beat;
#X obj 107 202 s beat;
#X obj 60 245 s beat;
#X obj 60 166 sel 1;
#X obj 107 127 sel 1;
#X obj 154 107 sel 1;
#X obj 14 60 route /keychooser /up /down /bang /dur /moll /reset,
f 55;
#X obj 294 84 s reset;
#X msg 200 84 0;
#X msg 247 83 1;
#X obj 232 125 s durmoll;
#X connect 0 0 1 0;
#X connect 1 0 15 0;
#X connect 6 0 11 0;
#X connect 6 1 5 0;
#X connect 7 0 10 0;
#X connect 7 1 8 0;
#X connect 12 0 6 0;
#X connect 13 0 7 0;
#X connect 14 0 9 0;
#X connect 15 0 2 0;
#X connect 15 1 12 0;
#X connect 15 2 13 0;
#X connect 15 3 14 0;
#X connect 15 4 17 0;
#X connect 15 5 18 0;
#X connect 15 6 16 0;
#X connect 17 0 19 0;
#X connect 18 0 19 0;
