#N canvas 131 23 950 713 10;
#X obj 18 19 receive fromGUI;
#X obj 19 44 route list;
#X obj 18 117 select 0 1;
#X obj 103 117 select 0 1;
#X obj 190 117 select 0 1;
#X msg 172 576 list /vol \$1;
#X obj 172 606 s toGUI;
#X obj 172 516 loadbang;
#X msg 220 310 3;
#N canvas 0 22 869 584 shownote 0;
#X msg 14 143 list /outthenote \$1\$2;
#X obj 32 89 print pitch;
#X obj 9 13 inlet;
#X floatatom 9 35 5 0 0 0 - - -, f 5;
#X obj 14 170 outlet;
#X obj 14 116 notenamemap;
#X connect 0 0 4 0;
#X connect 2 0 3 0;
#X connect 3 0 1 0;
#X connect 3 0 5 0;
#X connect 5 0 0 0;
#X restore 97 456 pd shownote;
#N canvas 0 23 317 227 makesound 0;
#X obj 19 19 inlet;
#X obj 214 18 inlet;
#X obj 138 175 noteout;
#N canvas 0 342 463 354 minisynth 0;
#X obj 13 514 mtof;
#X obj 13 463 stripnote;
#X obj 164 519 select;
#X obj 155 413 float;
#X obj 164 381 t b f;
#X obj 164 487 float;
#X text 217 367 f - store pitch below;
#X text 209 415 velocity stored here;
#X text 128 459 off;
#X text 216 486 recall pitch;
#X obj 13 340 unpack;
#X obj 13 273 notein;
#X obj 13 300 pack;
#X obj 94 570 line~;
#X msg 94 544 \$1 100;
#X msg 164 545 0 1000;
#X msg 152 290 55 64;
#X msg 152 316 55 0;
#X msg 95 291 48 64;
#X msg 95 317 48 0;
#X text 218 387 b - bang to recall velocity;
#X obj 155 442 sel 0;
#X text 177 463 on;
#X obj 344 621 output~;
#X obj 15 688 hip~ 5;
#X obj 14 642 *~;
#X obj 13 541 phasor~;
#X obj 13 565 -~ 0.5;
#X obj 14 593 cos~;
#X obj 102 617 *~;
#X obj 14 617 +~ 1;
#X obj 102 665 cos~;
#X msg 95 268 48 128;
#X text 18 491 pitch;
#X text 19 443 messages;
#X text 210 441 test for note on or off;
#X text 227 520 test against latest;
#X text 18 407 filter;
#X text 19 425 note-on;
#X obj 15 664 *~;
#X obj 94 517 / 127;
#X text 148 571 envelope generator now controls amplitude;
#X obj 102 641 *~ 2;
#X obj 123 594 +~ 0.5;
#X text 148 648 This replaces the tabread4~;
#X text 211 290 These buttons simulate MIDI input.;
#X obj 66 204 inlet pitch;
#X obj 159 205 inlet dur;
#X obj 289 243 inlet vol;
#X connect 0 0 26 0;
#X connect 1 0 2 1;
#X connect 1 0 0 0;
#X connect 2 0 15 0;
#X connect 3 0 21 0;
#X connect 4 0 3 0;
#X connect 4 1 5 1;
#X connect 5 0 2 0;
#X connect 10 0 1 0;
#X connect 10 0 4 0;
#X connect 10 1 1 1;
#X connect 10 1 3 1;
#X connect 11 0 12 0;
#X connect 11 1 12 1;
#X connect 12 0 10 0;
#X connect 13 0 39 1;
#X connect 13 0 43 0;
#X connect 14 0 13 0;
#X connect 15 0 13 0;
#X connect 16 0 10 0;
#X connect 17 0 10 0;
#X connect 18 0 10 0;
#X connect 19 0 10 0;
#X connect 21 0 5 0;
#X connect 21 1 40 0;
#X connect 24 0 23 0;
#X connect 24 0 23 1;
#X connect 25 0 39 0;
#X connect 26 0 27 0;
#X connect 27 0 29 0;
#X connect 27 0 28 0;
#X connect 28 0 30 0;
#X connect 29 0 42 0;
#X connect 30 0 25 0;
#X connect 31 0 25 1;
#X connect 32 0 10 0;
#X connect 39 0 24 0;
#X connect 40 0 14 0;
#X connect 42 0 31 0;
#X connect 43 0 29 1;
#X connect 46 0 12 0;
#X connect 47 0 12 1;
#X connect 48 0 23 2;
#X restore 124 144 pd minisynth;
#X obj 38 94 makenote 60 300 0;
#X msg 118 51 20;
#N canvas 323 177 450 300 play 0;
#X obj 52 21 inlet;
#X obj 137 21 inlet;
#X obj 59 189 output~;
#X obj 52 117 sampleplayer doublebass;
#X msg 18 75 60;
#X msg 238 90 90;
#X msg 71 75 57;
#X msg 114 77 55;
#X connect 0 0 3 0;
#X connect 3 0 2 0;
#X connect 3 0 2 1;
#X connect 3 1 2 2;
#X connect 4 0 3 0;
#X connect 6 0 3 0;
#X connect 7 0 3 0;
#X restore 37 147 pd play;
#X connect 0 0 4 0;
#X connect 1 0 3 2;
#X connect 1 0 2 2;
#X connect 1 0 6 1;
#X connect 4 0 6 0;
#X connect 4 1 3 1;
#X connect 4 1 2 1;
#X connect 5 0 4 1;
#X restore 6 456 pd makesound;
#N canvas 83 171 273 393 initbase 1;
#X obj 145 40 inlet;
#X floatatom 142 122 5 0 0 0 - - -, f 5;
#X obj 16 229 s toGUI;
#X obj 142 99 + 36;
#X msg 16 207 list /setbase \$1\$2;
#X obj 159 269 print base;
#X floatatom 142 303 5 0 0 0 - - -, f 5;
#X obj 144 187 t f b;
#X obj 142 231 v currentnote;
#X floatatom 145 62 5 0 0 0 - - -, f 5;
#X obj 142 335 outlet;
#X obj 17 185 notenamemap;
#X connect 0 0 9 0;
#X connect 1 0 7 0;
#X connect 1 0 11 0;
#X connect 3 0 1 0;
#X connect 4 0 2 0;
#X connect 6 0 10 0;
#X connect 7 0 8 0;
#X connect 7 1 8 0;
#X connect 8 0 5 0;
#X connect 8 0 6 0;
#X connect 9 0 3 0;
#X connect 11 0 4 0;
#X restore 121 338 pd initbase;
#X msg 184 309 9;
#X obj 459 115 loadbang, f 9;
#X obj 222 43 route /up /stay /down /vol /base /dur /moll;
#X msg 264 575 list /base \$1;
#X msg 8 89 1 \, 0;
#X msg 88 92 1 \, 0;
#X msg 178 91 1 \, 0;
#X obj 406 114 sel 0 1;
#X obj 424 141 s dur;
#X obj 440 69 sel 0 1;
#X obj 459 94 s moll;
#X obj 696 44 r moll;
#X obj 657 44 r dur;
#X obj 630 88 s scale-up;
#X obj 700 87 s scale-down;
#X obj 368 164 s base;
#X obj 121 310 r base;
#X obj 313 103 loadbang;
#X msg 313 128 0;
#X obj 331 239 s vol;
#X obj 50 430 r vol;
#X obj 380 574 guicontrol;
#X obj 331 204 * 100;
#X msg 172 546 0.9;
#X msg 299 169 0.9;
#N canvas 0 22 786 556 toggles 0;
#X obj 284 53 route list;
#X obj 250 127 sel 0 1;
#X obj 319 127 sel 0 1;
#X obj 284 75 route /ex1 /ex2 /ex3;
#X obj 421 125 sel 0 1, f 8;
#X msg 271 195 list /ex2 0;
#X msg 183 192 list /ex3 0;
#X msg 363 197 list /ex1 0;
#X obj 308 16 inlet;
#X obj 398 393 outlet value;
#X obj 89 397 outlet;
#X msg 349 297 1;
#X msg 407 298 2;
#X msg 484 297 3;
#X connect 0 0 3 0;
#X connect 1 1 6 0;
#X connect 1 1 11 0;
#X connect 1 1 5 0;
#X connect 2 1 7 0;
#X connect 2 1 12 0;
#X connect 2 1 6 0;
#X connect 3 0 1 0;
#X connect 3 1 2 0;
#X connect 3 2 4 0;
#X connect 4 1 5 0;
#X connect 4 1 13 0;
#X connect 4 1 7 0;
#X connect 5 0 10 0;
#X connect 6 0 10 0;
#X connect 7 0 10 0;
#X connect 8 0 0 0;
#X connect 11 0 9 0;
#X connect 12 0 9 0;
#X connect 13 0 9 0;
#X restore 487 575 pd toggles;
#X obj 415 547 r fromGUI;
#X obj 416 603 s toGUI;
#X floatatom 473 604 5 0 0 0 - - -, f 5;
#N canvas 0 23 597 620 randomwalk 0;
#N canvas 479 190 500 481 intervallierer 0;
#X obj 41 34 inlet;
#X obj 144 206 next-in-scale;
#X obj 161 231 inlet;
#X obj 129 289 f;
#X obj 207 289 f;
#X obj 164 418 outlet;
#X floatatom 12 84 5 0 0 0 - - -, f 5;
#X floatatom 110 235 5 0 0 0 - - -, f 5;
#X floatatom 240 234 5 0 0 0 - - -, f 5;
#X obj 161 255 sel 0 1;
#X floatatom 235 266 5 0 0 0 - - -, f 5;
#X obj 181 140 r scale-up;
#X obj 219 171 r scale-down;
#X connect 0 0 6 0;
#X connect 0 0 1 0;
#X connect 1 0 3 1;
#X connect 1 0 7 0;
#X connect 1 1 4 1;
#X connect 1 1 8 0;
#X connect 2 0 9 0;
#X connect 2 0 10 0;
#X connect 3 0 5 0;
#X connect 4 0 5 0;
#X connect 9 0 3 0;
#X connect 9 1 4 0;
#X connect 11 0 1 1;
#X connect 12 0 1 2;
#X restore 72 394 pd intervallierer;
#X floatatom 72 433 5 0 0 0 - - -, f 5;
#X obj 146 325 f;
#X msg 191 266 1;
#X msg 310 261 0;
#X obj 119 223 loop 1 2;
#X obj 40 395 f;
#X obj 144 350 t b f;
#X text 343 262 0=up;
#X text 218 266 1=down;
#N canvas 216 140 450 300 random-interval 1;
#X obj 51 25 inlet;
#X msg 52 121 3;
#X msg 97 149 5;
#X msg 142 171 7;
#X msg 187 195 4;
#X obj 51 256 outlet;
#X obj 52 90 moses 11;
#X obj 97 121 moses 13;
#X obj 142 149 moses 14;
#X obj 187 172 moses 15;
#X msg 232 218 2;
#X obj 51 47 random \$1;
#X connect 0 0 11 0;
#X connect 1 0 5 0;
#X connect 2 0 5 0;
#X connect 3 0 5 0;
#X connect 4 0 5 0;
#X connect 6 0 1 0;
#X connect 6 1 7 0;
#X connect 7 0 2 0;
#X connect 7 1 8 0;
#X connect 8 0 3 0;
#X connect 8 1 9 0;
#X connect 9 0 4 0;
#X connect 9 1 10 0;
#X connect 10 0 5 0;
#X connect 11 0 6 0;
#X restore 119 159 pd random-interval;
#X floatatom 119 181 5 0 0 0 - - -, f 5;
#X obj 119 200 - 1;
#X obj 272 475 t b;
#X obj 71 480 moses 28;
#X obj 116 515 t b;
#X obj 118 125 inlet;
#X obj 30 536 outlet;
#X obj 310 237 inlet up;
#X obj 191 241 inlet down;
#X obj 402 196 inlet base;
#X obj 71 458 moses 55;
#X connect 0 0 1 0;
#X connect 0 0 6 1;
#X connect 0 0 17 0;
#X connect 1 0 21 0;
#X connect 2 0 7 0;
#X connect 3 0 2 1;
#X connect 4 0 2 1;
#X connect 5 1 2 0;
#X connect 6 0 0 0;
#X connect 7 0 6 0;
#X connect 7 1 0 1;
#X connect 10 0 11 0;
#X connect 11 0 12 0;
#X connect 12 0 5 0;
#X connect 13 0 3 0;
#X connect 14 0 15 0;
#X connect 15 0 4 0;
#X connect 16 0 10 0;
#X connect 18 0 4 0;
#X connect 19 0 3 0;
#X connect 20 0 0 0;
#X connect 21 0 14 0;
#X connect 21 1 13 0;
#X restore 12 375 pd randomwalk;
#X obj 57 340 t b b;
#X obj 11 338 t b b;
#X floatatom 96 427 5 0 0 0 - - -, f 5;
#X obj 667 66 scales;
#X connect 0 0 1 0;
#X connect 1 0 14 0;
#X connect 2 1 43 0;
#X connect 4 1 42 0;
#X connect 5 0 6 0;
#X connect 7 0 35 0;
#X connect 8 0 11 0;
#X connect 9 0 6 0;
#X connect 11 0 41 3;
#X connect 12 0 11 0;
#X connect 13 0 20 0;
#X connect 14 0 2 0;
#X connect 14 1 3 0;
#X connect 14 2 4 0;
#X connect 14 3 34 0;
#X connect 14 4 27 0;
#X connect 14 5 19 0;
#X connect 14 6 21 0;
#X connect 15 0 6 0;
#X connect 16 0 2 0;
#X connect 17 0 3 0;
#X connect 18 0 4 0;
#X connect 19 1 20 0;
#X connect 21 1 22 0;
#X connect 23 0 45 1;
#X connect 24 0 45 0;
#X connect 28 0 11 0;
#X connect 29 0 30 0;
#X connect 30 0 27 0;
#X connect 32 0 10 1;
#X connect 33 0 39 0;
#X connect 34 0 31 0;
#X connect 35 0 5 0;
#X connect 36 0 34 0;
#X connect 37 0 39 0;
#X connect 37 1 40 0;
#X connect 38 0 37 0;
#X connect 38 0 33 0;
#X connect 41 0 10 0;
#X connect 41 0 44 0;
#X connect 42 0 41 0;
#X connect 42 1 41 1;
#X connect 43 0 41 0;
#X connect 43 1 41 2;
#X connect 44 0 9 0;
#X connect 45 0 25 0;
#X connect 45 1 26 0;
