#N canvas 331 23 950 713 10;
#X obj 18 19 receive fromGUI;
#X obj 19 44 route list;
#X obj 18 117 select 0 1;
#X obj 103 117 select 0 1;
#X obj 190 117 select 0 1;
#X msg 172 576 list /vol \$1;
#X obj 172 606 s toGUI;
#X obj 172 516 loadbang;
#X msg 560 345 3;
#X obj 391 606 v upnote;
#X obj 484 604 v downnote;
#X obj 13 163 v upnote;
#X floatatom 13 201 5 0 0 0 - - -, f 5;
#X obj 218 162 v downnote;
#X floatatom 390 521 5 0 0 0 - - -, f 5;
#X floatatom 453 521 5 0 0 0 - - -, f 5;
#X floatatom 130 188 5 0 0 0 - - -, f 5;
#X floatatom 223 197 5 0 0 0 - - -, f 5;
#N canvas 0 22 869 584 shownote 0;
#X msg 14 143 list /outthenote \$1\$2;
#N canvas 0 22 355 480 notenamemap 0;
#X floatatom 82 180 0 0 0 0 - - -;
#X floatatom 42 179 0 0 0 0 - - -;
#X obj 42 111 f;
#X obj 42 153 div;
#X obj 82 154 mod;
#X msg 102 83 12;
#X obj 85 52 loadbang;
#X obj 82 208 select 0 1 2 3 4 5 6 7 8 9 10 11;
#X msg 52 241 C;
#X msg 76 267 C#;
#X msg 101 241 D;
#X msg 124 267 D#;
#X msg 146 241 E;
#X msg 170 267 F;
#X msg 194 241 F#;
#X msg 170 314 G;
#X msg 222 289 G#;
#X msg 152 314 A;
#X msg 200 314 A#;
#X msg 246 314 B;
#X obj 42 201 - 2;
#X obj 116 378 print notename;
#X obj 41 357 pack s f;
#X obj 12 19 inlet;
#X obj 38 424 outlet;
#X connect 0 0 7 0;
#X connect 1 0 20 0;
#X connect 2 0 3 0;
#X connect 2 0 4 0;
#X connect 3 0 1 0;
#X connect 4 0 0 0;
#X connect 5 0 3 1;
#X connect 5 0 4 1;
#X connect 6 0 5 0;
#X connect 7 0 8 0;
#X connect 7 1 9 0;
#X connect 7 2 10 0;
#X connect 7 3 11 0;
#X connect 7 4 12 0;
#X connect 7 5 13 0;
#X connect 7 6 14 0;
#X connect 7 7 15 0;
#X connect 7 8 16 0;
#X connect 7 9 17 0;
#X connect 7 10 18 0;
#X connect 7 11 19 0;
#X connect 8 0 22 0;
#X connect 9 0 22 0;
#X connect 10 0 22 0;
#X connect 11 0 22 0;
#X connect 12 0 22 0;
#X connect 13 0 22 0;
#X connect 14 0 22 0;
#X connect 15 0 22 0;
#X connect 16 0 22 0;
#X connect 17 0 22 0;
#X connect 18 0 22 0;
#X connect 19 0 22 0;
#X connect 20 0 22 1;
#X connect 22 0 21 0;
#X connect 22 0 24 0;
#X connect 23 0 2 0;
#X restore 14 116 pd notenamemap;
#X obj 32 89 print pitch;
#X obj 9 13 inlet;
#X floatatom 9 35 5 0 0 0 - - -, f 5;
#X obj 14 170 outlet;
#X connect 0 0 5 0;
#X connect 1 0 0 0;
#X connect 3 0 4 0;
#X connect 4 0 2 0;
#X connect 4 0 1 0;
#X restore 104 389 pd shownote;
#N canvas 0 22 317 227 makesound 0;
#X obj 19 19 inlet;
#X obj 214 18 inlet;
#X obj 138 175 noteout;
#N canvas 0 342 463 354 minisynth 0;
#X obj 13 514 mtof;
#X obj 13 463 stripnote;
#X obj 164 519 select;
#X obj 155 413 float;
#X obj 164 381 t b f;
#X obj 164 487 float;
#X text 217 367 f - store pitch below;
#X text 209 415 velocity stored here;
#X text 128 459 off;
#X text 216 486 recall pitch;
#X obj 13 340 unpack;
#X obj 13 273 notein;
#X obj 13 300 pack;
#X obj 94 570 line~;
#X msg 94 544 \$1 100;
#X msg 164 545 0 1000;
#X msg 152 290 55 64;
#X msg 152 316 55 0;
#X msg 95 291 48 64;
#X msg 95 317 48 0;
#X text 218 387 b - bang to recall velocity;
#X obj 155 442 sel 0;
#X text 177 463 on;
#X obj 344 621 output~;
#X obj 15 688 hip~ 5;
#X obj 14 642 *~;
#X obj 13 541 phasor~;
#X obj 13 565 -~ 0.5;
#X obj 14 593 cos~;
#X obj 102 617 *~;
#X obj 14 617 +~ 1;
#X obj 102 665 cos~;
#X msg 95 268 48 128;
#X text 18 491 pitch;
#X text 19 443 messages;
#X text 210 441 test for note on or off;
#X text 227 520 test against latest;
#X text 18 407 filter;
#X text 19 425 note-on;
#X obj 15 664 *~;
#X obj 94 517 / 127;
#X text 148 571 envelope generator now controls amplitude;
#X obj 102 641 *~ 2;
#X obj 123 594 +~ 0.5;
#X text 148 648 This replaces the tabread4~;
#X text 211 290 These buttons simulate MIDI input.;
#X obj 66 204 inlet pitch;
#X obj 159 205 inlet dur;
#X obj 289 243 inlet vol;
#X connect 0 0 26 0;
#X connect 1 0 2 1;
#X connect 1 0 0 0;
#X connect 2 0 15 0;
#X connect 3 0 21 0;
#X connect 4 0 3 0;
#X connect 4 1 5 1;
#X connect 5 0 2 0;
#X connect 10 0 1 0;
#X connect 10 0 4 0;
#X connect 10 1 1 1;
#X connect 10 1 3 1;
#X connect 11 0 12 0;
#X connect 11 1 12 1;
#X connect 12 0 10 0;
#X connect 13 0 39 1;
#X connect 13 0 43 0;
#X connect 14 0 13 0;
#X connect 15 0 13 0;
#X connect 16 0 10 0;
#X connect 17 0 10 0;
#X connect 18 0 10 0;
#X connect 19 0 10 0;
#X connect 21 0 5 0;
#X connect 21 1 40 0;
#X connect 24 0 23 0;
#X connect 24 0 23 1;
#X connect 25 0 39 0;
#X connect 26 0 27 0;
#X connect 27 0 29 0;
#X connect 27 0 28 0;
#X connect 28 0 30 0;
#X connect 29 0 42 0;
#X connect 30 0 25 0;
#X connect 31 0 25 1;
#X connect 32 0 10 0;
#X connect 39 0 24 0;
#X connect 40 0 14 0;
#X connect 42 0 31 0;
#X connect 43 0 29 1;
#X connect 46 0 12 0;
#X connect 47 0 12 1;
#X connect 48 0 23 2;
#X restore 124 144 pd minisynth;
#X obj 38 94 makenote 60 300 0;
#X msg 118 51 20;
#X connect 0 0 4 0;
#X connect 1 0 3 2;
#X connect 1 0 2 2;
#X connect 4 0 3 0;
#X connect 4 1 3 1;
#X connect 4 1 2 1;
#X connect 5 0 4 1;
#X restore 6 456 pd makesound;
#X obj 453 499 float;
#X obj 366 499 v currentnote;
#X obj 131 162 v currentnote;
#X floatatom 401 446 5 0 0 0 - - -, f 5;
#N canvas 137 23 273 393 initbase 0;
#X obj 145 40 inlet;
#X floatatom 142 122 5 0 0 0 - - -, f 5;
#X obj 16 229 s toGUI;
#X obj 142 99 + 36;
#N canvas 65 198 355 480 notenamemap 0;
#X floatatom 82 180 0 0 0 0 - - -;
#X floatatom 42 179 0 0 0 0 - - -;
#X obj 42 111 f;
#X obj 42 153 div;
#X obj 82 154 mod;
#X msg 102 83 12;
#X obj 85 52 loadbang;
#X obj 82 208 select 0 1 2 3 4 5 6 7 8 9 10 11;
#X msg 52 241 C;
#X msg 76 267 C#;
#X msg 101 241 D;
#X msg 124 267 D#;
#X msg 146 241 E;
#X msg 170 267 F;
#X msg 194 241 F#;
#X msg 170 314 G;
#X msg 222 289 G#;
#X msg 152 314 A;
#X msg 200 314 A#;
#X msg 246 314 B;
#X obj 42 201 - 2;
#X obj 41 357 pack s f;
#X obj 12 19 inlet;
#X obj 38 424 outlet;
#X obj 116 378 print notename;
#X connect 0 0 7 0;
#X connect 1 0 20 0;
#X connect 2 0 3 0;
#X connect 2 0 4 0;
#X connect 3 0 1 0;
#X connect 4 0 0 0;
#X connect 5 0 3 1;
#X connect 5 0 4 1;
#X connect 6 0 5 0;
#X connect 7 0 8 0;
#X connect 7 1 9 0;
#X connect 7 2 10 0;
#X connect 7 3 11 0;
#X connect 7 4 12 0;
#X connect 7 5 13 0;
#X connect 7 6 14 0;
#X connect 7 7 15 0;
#X connect 7 8 16 0;
#X connect 7 9 17 0;
#X connect 7 10 18 0;
#X connect 7 11 19 0;
#X connect 8 0 21 0;
#X connect 9 0 21 0;
#X connect 10 0 21 0;
#X connect 11 0 21 0;
#X connect 12 0 21 0;
#X connect 13 0 21 0;
#X connect 14 0 21 0;
#X connect 15 0 21 0;
#X connect 16 0 21 0;
#X connect 17 0 21 0;
#X connect 18 0 21 0;
#X connect 19 0 21 0;
#X connect 20 0 21 1;
#X connect 21 0 23 0;
#X connect 21 0 24 0;
#X connect 22 0 2 0;
#X restore 17 185 pd notenamemap;
#X msg 16 207 list /setbase \$1\$2;
#X obj 159 269 print base;
#X floatatom 142 303 5 0 0 0 - - -, f 5;
#X obj 144 187 t f b;
#X obj 142 231 v currentnote;
#X floatatom 145 62 5 0 0 0 - - -, f 5;
#X obj 142 335 outlet;
#X connect 0 0 10 0;
#X connect 1 0 4 0;
#X connect 1 0 8 0;
#X connect 3 0 1 0;
#X connect 4 0 5 0;
#X connect 5 0 2 0;
#X connect 7 0 11 0;
#X connect 8 0 9 0;
#X connect 8 1 9 0;
#X connect 9 0 6 0;
#X connect 9 0 7 0;
#X connect 10 0 3 0;
#X restore 388 390 pd initbase;
#X msg 524 344 9;
#X obj 332 422 t b b f;
#X msg 651 197 2 1 2 1 1 2 1 2 1 2 1 1 dur-up;
#X msg 631 253 -1 -1 -2 -1 -2 -1 -1 -2 -1 -2 -1 -2 dur-down;
#N canvas 0 22 647 600 nextscalenote 1;
#X obj 85 46 inlet;
#X obj 80 573 outlet;
#X obj 295 574 outlet;
#X floatatom 80 538 5 0 0 0 - - -, f 5;
#X floatatom 319 549 5 0 0 0 - - -, f 5;
#X obj 275 47 inlet;
#X floatatom 236 76 5 0 0 0 - - -, f 5;
#X text 81 24 note in;
#X text 271 27 base in;
#X text 77 596 next up;
#X text 295 597 next down;
#X obj 261 141 -;
#X obj 262 167 mod 12;
#X obj 388 53 inlet;
#X obj 464 53 inlet;
#X text 386 38 scale up;
#X text 465 36 scale down;
#X obj 292 267 next-in-scale;
#X obj 156 390 +;
#X obj 186 349 t b f;
#X obj 280 395 +;
#X obj 310 354 t b f;
#X obj 254 513 t b;
#X obj 132 516 t b;
#X obj 99 473 moses 67;
#X msg 132 538 67;
#X obj 288 477 moses 28;
#X msg 255 543 28;
#X connect 0 0 11 0;
#X connect 0 0 18 0;
#X connect 0 0 20 0;
#X connect 3 0 1 0;
#X connect 4 0 2 0;
#X connect 5 0 6 0;
#X connect 5 0 11 1;
#X connect 11 0 12 0;
#X connect 12 0 17 0;
#X connect 13 0 17 1;
#X connect 14 0 17 2;
#X connect 17 0 19 0;
#X connect 17 1 21 0;
#X connect 18 0 24 0;
#X connect 19 0 18 0;
#X connect 19 1 18 1;
#X connect 20 0 26 0;
#X connect 21 0 20 0;
#X connect 21 1 20 1;
#X connect 22 0 27 0;
#X connect 23 0 25 0;
#X connect 24 0 3 0;
#X connect 24 1 23 0;
#X connect 25 0 1 0;
#X connect 26 0 22 0;
#X connect 26 1 4 0;
#X connect 27 0 2 0;
#X restore 391 558 pd nextscalenote;
#X floatatom 391 583 5 0 0 0 - - -, f 5;
#X floatatom 484 583 5 0 0 0 - - -, f 5;
#X obj 459 115 loadbang, f 9;
#X obj 222 43 route /up /stay /down /vol /base /dur /moll;
#X msg 649 59 2 1 1 2 1 2 1 1 2 1 2 1 moll-up;
#X msg 632 119 -2 -1 -2 -1 -1 -2 -1 -2 -1 -1 -2 -1 moll-down;
#X msg 264 575 list /base \$1;
#X msg 8 89 1 \, 0;
#X msg 88 92 1 \, 0;
#X msg 178 91 1 \, 0;
#X obj 406 114 sel 0 1;
#X obj 424 141 s dur;
#X obj 440 69 sel 0 1;
#X obj 459 94 s moll;
#X obj 630 28 r moll;
#X obj 649 81 s scale-up;
#X obj 632 141 s scale-down;
#X obj 631 163 r dur;
#X obj 651 219 s scale-up;
#X obj 631 275 s scale-down;
#X obj 508 500 r scale-up;
#X obj 505 526 r scale-down;
#X obj 368 164 s base;
#X obj 388 362 r base;
#X obj 313 103 loadbang;
#X msg 313 128 0;
#X obj 331 239 s vol;
#X obj 50 430 r vol;
#X obj 404 289 guicontrol;
#X obj 331 204 * 100;
#X msg 172 546 0.9;
#X msg 299 169 0.9;
#N canvas 0 22 786 556 toggles 1;
#X obj 284 53 route list;
#X obj 250 127 sel 0 1;
#X obj 319 127 sel 0 1;
#X obj 284 75 route /ex1 /ex2 /ex3;
#X obj 421 125 sel 0 1, f 8;
#X msg 271 195 list /ex2 0;
#X msg 183 192 list /ex3 0;
#X msg 363 197 list /ex1 0;
#X obj 308 16 inlet;
#X obj 398 393 outlet value;
#X obj 89 397 outlet;
#X msg 349 297 1;
#X msg 407 298 2;
#X msg 484 297 3;
#X connect 0 0 3 0;
#X connect 1 1 6 0;
#X connect 1 1 11 0;
#X connect 1 1 5 0;
#X connect 2 1 7 0;
#X connect 2 1 12 0;
#X connect 2 1 6 0;
#X connect 3 0 1 0;
#X connect 3 1 2 0;
#X connect 3 2 4 0;
#X connect 4 1 5 0;
#X connect 4 1 13 0;
#X connect 4 1 7 0;
#X connect 5 0 10 0;
#X connect 6 0 10 0;
#X connect 7 0 10 0;
#X connect 8 0 0 0;
#X connect 11 0 9 0;
#X connect 12 0 9 0;
#X connect 13 0 9 0;
#X restore 678 509 pd toggles;
#X obj 677 479 r fromGUI;
#X obj 675 547 s toGUI;
#X floatatom 746 548 5 0 0 0 - - -, f 5;
#X msg 615 445 list /ex2 1;
#X msg 614 415 list /ex3 1;
#X msg 698 416 list /ex1 1;
#X connect 0 0 1 0;
#X connect 1 0 33 0;
#X connect 2 1 11 0;
#X connect 3 1 22 0;
#X connect 4 1 13 0;
#X connect 5 0 6 0;
#X connect 7 0 60 0;
#X connect 8 0 24 0;
#X connect 11 0 12 0;
#X connect 12 0 18 0;
#X connect 12 0 19 0;
#X connect 12 0 26 0;
#X connect 13 0 17 0;
#X connect 14 0 29 0;
#X connect 15 0 29 1;
#X connect 16 0 18 0;
#X connect 16 0 19 0;
#X connect 16 0 26 0;
#X connect 17 0 18 0;
#X connect 17 0 19 0;
#X connect 17 0 26 0;
#X connect 18 0 6 0;
#X connect 20 0 15 0;
#X connect 21 0 14 0;
#X connect 22 0 16 0;
#X connect 23 0 21 0;
#X connect 24 0 20 1;
#X connect 24 0 26 0;
#X connect 25 0 24 0;
#X connect 26 0 21 0;
#X connect 26 1 20 0;
#X connect 26 2 23 0;
#X connect 27 0 48 0;
#X connect 28 0 49 0;
#X connect 29 0 30 0;
#X connect 29 1 31 0;
#X connect 30 0 9 0;
#X connect 31 0 10 0;
#X connect 32 0 41 0;
#X connect 33 0 2 0;
#X connect 33 1 3 0;
#X connect 33 2 4 0;
#X connect 33 3 59 0;
#X connect 33 4 52 0;
#X connect 33 5 40 0;
#X connect 33 6 42 0;
#X connect 34 0 45 0;
#X connect 35 0 46 0;
#X connect 36 0 6 0;
#X connect 37 0 2 0;
#X connect 38 0 3 0;
#X connect 39 0 4 0;
#X connect 40 1 41 0;
#X connect 42 1 43 0;
#X connect 44 0 34 0;
#X connect 44 0 35 0;
#X connect 47 0 27 0;
#X connect 47 0 28 0;
#X connect 50 0 29 2;
#X connect 51 0 29 3;
#X connect 53 0 24 0;
#X connect 54 0 55 0;
#X connect 55 0 52 0;
#X connect 57 0 19 1;
#X connect 59 0 56 0;
#X connect 60 0 5 0;
#X connect 61 0 59 0;
#X connect 62 0 64 0;
#X connect 62 1 65 0;
#X connect 63 0 62 0;
#X connect 66 0 62 0;
#X connect 67 0 62 0;
#X connect 68 0 62 0;
