#N canvas 0 22 991 612 10;
#X obj 14 15 receive fromGUI;
#X obj 14 38 route list;
#X obj 14 82 s key;
#X obj 326 300 core;
#X text 363 300 actual functionality.;
#X obj 14 60 route /keychooser /up /down /bang /reset;
#X obj 88 165 s up;
#X obj 61 144 t b b;
#X obj 108 103 t b b;
#X obj 135 124 s down;
#X obj 203 82 s reset;
#X obj 156 82 s beat;
#X obj 108 144 s beat;
#X obj 61 185 s beat;
#X connect 0 0 1 0;
#X connect 1 0 5 0;
#X connect 5 0 2 0;
#X connect 5 1 7 0;
#X connect 5 2 8 0;
#X connect 5 3 11 0;
#X connect 5 4 10 0;
#X connect 7 0 13 0;
#X connect 7 1 6 0;
#X connect 8 0 12 0;
#X connect 8 1 9 0;
