#N canvas 72 371 450 300 10;
#X obj 55 146 ==;
#X obj 55 168 select 1;
#X obj 55 189 v tmp;
#X obj 55 65 inlet;
#X obj 55 89 t f b;
#X obj 55 211 outlet;
#X obj 100 212 outlet;
#X obj 82 118 v tmp;
#X obj 100 190 t b, f 6;
#X connect 0 0 1 0;
#X connect 1 0 2 0;
#X connect 1 1 8 0;
#X connect 2 0 5 0;
#X connect 3 0 4 0;
#X connect 4 0 0 0;
#X connect 4 1 7 0;
#X connect 7 0 0 1;
#X connect 8 0 6 0;
