#N canvas 0 22 215 325 10;
#X obj 45 90 select 1;
#X obj 45 68 v updown;
#X obj 18 202 +;
#X obj 18 43 t f b;
#X obj 18 18 inlet;
#X obj 18 224 outlet;
#X obj 45 160 * -1;
#X obj 45 136 f \$1;
#X obj 45 112 t b;
#X obj 90 113 t b;
#X obj 90 160 f \$2;
#X connect 0 0 8 0;
#X connect 0 1 9 0;
#X connect 1 0 0 0;
#X connect 2 0 5 0;
#X connect 3 0 2 0;
#X connect 3 1 1 0;
#X connect 4 0 3 0;
#X connect 6 0 2 1;
#X connect 7 0 6 0;
#X connect 8 0 7 0;
#X connect 9 0 10 0;
#X connect 10 0 2 1;
