#N canvas 0 22 293 238 10;
#X obj 21 143 interval-in-scale;
#N canvas 0 22 154 168 apply-shift 0;
#X obj 37 37 inlet;
#X obj 37 59 t f b;
#X obj 37 123 outlet;
#X obj 63 80 v scaleshift;
#X obj 37 101 +;
#X connect 0 0 1 0;
#X connect 1 0 4 0;
#X connect 1 1 3 0;
#X connect 3 0 4 1;
#X connect 4 0 2 0;
#X restore 21 170 pd apply-shift;
#N canvas 0 216 154 168 remove-shift 0;
#X obj 37 37 inlet;
#X obj 37 59 t f b;
#X obj 37 123 outlet;
#X obj 63 80 v scaleshift;
#X obj 37 101 -;
#X connect 0 0 1 0;
#X connect 1 0 4 0;
#X connect 1 1 3 0;
#X connect 3 0 4 1;
#X connect 4 0 2 0;
#X restore 54 106 pd remove-shift;
#X obj 163 105 v updown;
#X obj 215 105 v durmoll;
#X obj 20 55 t f b b b b b b b b b b b b b b b;
#X obj 20 26 inlet;
#X obj 21 192 outlet;
#X obj 54 81 inlet;
#X connect 0 0 1 0;
#X connect 1 0 7 0;
#X connect 2 0 0 1;
#X connect 3 0 0 2;
#X connect 4 0 0 3;
#X connect 5 0 0 0;
#X connect 5 11 3 0;
#X connect 5 15 4 0;
#X connect 6 0 5 0;
#X connect 8 0 2 0;
