#N canvas 157 23 1011 706 10;
#X obj 37 158 beat-and-measure 4, f 31;
#X obj 21 98 bng 15 250 50 0 empty empty beat_it 17 7 0 10 -258113
-1 -1;
#X obj 220 203 bluesmap;
#X obj 240 416 print TSD;
#X obj 883 246 vradio 15 1 0 12 empty empty Scale 0 -8 0 10 -261234
-1 -1 10;
#X obj 934 497 v scaleshift;
#X obj 220 181 + 1;
#X obj 234 332 t b f;
#X obj 240 391 v next-chord;
#X msg 986 15 \; reset 1;
#X obj 89 81 r reset;
#X obj 918 524 notenamemap;
#X obj 918 552 print scale;
#X obj 883 470 t f f f f;
#X obj 784 168 r reset;
#X obj 784 190 t b b b b b b b b;
#X text 902 247 C;
#X text 902 263 C#;
#X text 904 277 D;
#X text 904 293 D#;
#X text 903 307 E;
#X text 903 322 F;
#X text 904 337 F#;
#X text 904 351 G;
#X text 904 364 G#;
#X text 903 382 A;
#X text 902 396 Bb;
#X text 902 410 B;
#X obj 917 161 bng 15 250 50 0 empty empty empty 17 7 0 10 -262144
-1 -1;
#X obj 985 162 bng 15 250 50 0 empty empty empty 17 7 0 10 -262144
-1 -1;
#X obj 912 91 bng 15 250 50 0 empty empty empty 17 7 0 10 -262144 -1
-1;
#X obj 913 118 v tonic;
#X obj 916 189 v subdom;
#X obj 984 188 v dom;
#N canvas 0 22 247 365 setup 0;
#X obj 13 6 inlet;
#X obj 13 307 + 36;
#X obj 13 329 v currentnote;
#X obj 13 92 v scaleshift;
#X obj 184 148 v tonic;
#X obj 105 147 v tonic;
#X obj 105 169 + 5;
#X obj 105 213 v subdom;
#X obj 105 191 % 12;
#X obj 39 147 v tonic;
#X obj 39 191 % 12;
#X obj 13 114 t f b b b b b b b b b b b b f;
#X obj 39 169 + 7;
#X obj 39 213 v dom;
#X connect 0 0 3 0;
#X connect 1 0 2 0;
#X connect 3 0 11 0;
#X connect 5 0 6 0;
#X connect 6 0 8 0;
#X connect 8 0 7 0;
#X connect 9 0 12 0;
#X connect 10 0 13 0;
#X connect 11 0 1 0;
#X connect 11 2 9 0;
#X connect 11 7 5 0;
#X connect 11 13 4 0;
#X connect 12 0 10 0;
#X restore 784 244 pd setup;
#X obj 642 382 hradio 15 1 0 2 empty empty up_down 0 -8 0 10 -262144
-1 -1 0;
#X obj 712 382 hradio 15 1 0 2 empty empty dur_moll 0 -8 0 10 -262144
-1 -1 0;
#X obj 712 402 v durmoll;
#X obj 37 216 sel 0 1, f 10;
#X msg 783 290 4;
#X msg 793 313 5;
#X msg 800 336 6;
#X msg 808 359 8;
#X obj 89 132 v ms;
#X obj 783 402 v ms;
#X obj 89 103 t b b b b;
#X obj 783 266 loadbang;
#X obj 357 328 bng 15 250 50 0 empty empty empty 17 7 0 10 -262144
-1 -1;
#X obj 466 398 print chord;
#X obj 376 421 v currentnote;
#X obj 269 494 print preval;
#X obj 357 380 t b b l;
#X obj 436 537 print after;
#X obj 846 122 r key;
#X obj 10 67 r beat;
#X obj 712 341 r durmoll;
#X obj 10 131 t b b;
#X obj 10 485 v currentnote;
#X obj 357 518 v nextchord;
#N canvas 0 191 450 300 nextnote 0;
#X obj 70 98 random-interval;
#X obj 70 56 t b b;
#X obj 161 148 t f b;
#X obj 188 172 v currentnote;
#X msg 157 73 10 3 5 1 1;
#X obj 29 12 inlet;
#X obj 289 11 inlet;
#X obj 161 229 set-current 30 60;
#X obj 161 199 util-interval;
#X connect 0 0 2 0;
#X connect 1 0 0 0;
#X connect 1 1 4 0;
#X connect 2 0 8 0;
#X connect 2 1 3 0;
#X connect 3 0 8 1;
#X connect 4 0 0 1;
#X connect 5 0 1 0;
#X connect 6 0 2 0;
#X connect 8 0 7 0;
#X restore 671 531 pd nextnote;
#X obj 671 509 bng 15 250 50 0 empty empty empty 17 7 0 10 -262144
-1 -1;
#X msg 768 514 8;
#X msg 756 494 3;
#X msg 745 474 5;
#X msg 734 453 4;
#X obj 645 489 r random;
#X obj 220 225 select 1 5 7, f 41;
#X obj 220 270 v tonic;
#X obj 302 270 v subdom;
#X obj 382 271 v dom;
#X obj 385 312 t b f;
#X obj 220 248 t b;
#X obj 301 249 t b;
#X obj 382 249 t b;
#X obj 357 358 util-next-chord;
#X obj 65 373 v nextchord;
#X obj 37 416 v nextchord;
#X obj 37 438 util-updown 1 1;
#X obj 613 322 r up;
#X msg 648 343 0;
#X obj 648 322 r down;
#X msg 613 343 1;
#N canvas 0 22 290 171 soundout 1;
#X obj 15 59 sampleplayer doublebass;
#X obj 15 97 output~;
#X obj 150 14 r reset;
#X msg 150 37 99;
#X obj 15 13 inlet;
#X obj 24 37 debugdump noteout;
#X obj 213 14 r silent;
#X msg 213 36 0;
#X connect 0 0 1 0;
#X connect 0 0 1 1;
#X connect 0 1 1 2;
#X connect 2 0 3 0;
#X connect 3 0 0 1;
#X connect 4 0 0 0;
#X connect 4 0 5 0;
#X connect 6 0 7 0;
#X connect 7 0 0 1;
#X restore 10 531 pd soundout;
#X obj 923 33 v debug;
#X obj 923 12 tgl 15 0 empty empty empty 17 7 0 10 -262144 -1 -1 1
1;
#X obj 65 349 t b;
#X obj 37 395 t b;
#X obj 357 473 util-next-in-chord;
#X obj 37 460 set-current 30 60;
#X obj 65 395 set-current 30 60;
#X floatatom 10 506 5 0 0 0 - - -, f 5;
#X obj 50 190 debugdump intakt;
#N canvas 859 532 421 246 gorandom 1;
#X obj 26 85 random-interval;
#X obj 26 15 inlet;
#X floatatom 26 39 5 0 0 0 - - -, f 5;
#X obj 26 58 t b b b b, f 54;
#X obj 133 85 v currentnote;
#X obj 240 85 updown;
#X obj 347 86 v durmoll;
#X floatatom 25 179 5 0 0 0 - - -, f 5;
#X obj 25 198 outlet;
#X obj 25 157 interval-in-scale;
#X connect 0 0 9 0;
#X connect 1 0 2 0;
#X connect 2 0 3 0;
#X connect 3 0 0 0;
#X connect 3 1 4 0;
#X connect 3 2 5 0;
#X connect 3 3 6 0;
#X connect 4 0 9 1;
#X connect 5 0 9 2;
#X connect 6 0 9 3;
#X connect 7 0 8 0;
#X connect 9 0 7 0;
#X restore 94 252 pd gorandom;
#X obj 94 274 set-current 30 60;
#X obj 523 111 bng 15 250 50 0 empty empty empty 17 7 0 10 -262144
-1 -1;
#X obj 523 131 s silent;
#X obj 609 402 updown;
#X connect 0 0 38 0;
#X connect 0 0 91 0;
#X connect 0 1 6 0;
#X connect 1 0 56 0;
#X connect 2 0 66 0;
#X connect 4 0 13 0;
#X connect 6 0 2 0;
#X connect 7 0 8 0;
#X connect 7 0 74 0;
#X connect 7 1 8 0;
#X connect 8 0 3 0;
#X connect 10 0 45 0;
#X connect 11 0 12 0;
#X connect 13 2 11 0;
#X connect 13 3 5 0;
#X connect 14 0 15 0;
#X connect 15 0 34 0;
#X connect 15 7 4 0;
#X connect 28 0 32 0;
#X connect 29 0 33 0;
#X connect 30 0 31 0;
#X connect 31 0 4 0;
#X connect 32 0 4 0;
#X connect 33 0 4 0;
#X connect 35 0 96 1;
#X connect 36 0 37 0;
#X connect 38 0 86 0;
#X connect 38 1 85 0;
#X connect 38 2 92 0;
#X connect 39 0 44 0;
#X connect 40 0 44 0;
#X connect 41 0 44 0;
#X connect 42 0 44 0;
#X connect 43 0 0 1;
#X connect 45 0 43 0;
#X connect 45 3 0 2;
#X connect 46 0 39 0;
#X connect 47 0 74 0;
#X connect 49 0 50 0;
#X connect 49 0 87 1;
#X connect 51 0 87 0;
#X connect 51 1 49 0;
#X connect 51 2 48 0;
#X connect 51 2 87 2;
#X connect 53 0 4 0;
#X connect 54 0 56 0;
#X connect 55 0 36 0;
#X connect 56 0 57 0;
#X connect 56 1 0 0;
#X connect 57 0 90 0;
#X connect 60 0 59 0;
#X connect 61 0 59 1;
#X connect 62 0 59 1;
#X connect 63 0 59 1;
#X connect 64 0 59 1;
#X connect 65 0 59 0;
#X connect 66 0 71 0;
#X connect 66 1 72 0;
#X connect 66 2 73 0;
#X connect 67 0 70 0;
#X connect 68 0 70 0;
#X connect 69 0 70 0;
#X connect 70 0 74 0;
#X connect 70 1 74 1;
#X connect 71 0 67 0;
#X connect 72 0 68 0;
#X connect 73 0 69 0;
#X connect 74 0 51 0;
#X connect 75 0 89 0;
#X connect 76 0 77 0;
#X connect 77 0 88 0;
#X connect 78 0 81 0;
#X connect 79 0 35 0;
#X connect 80 0 79 0;
#X connect 81 0 35 0;
#X connect 84 0 83 0;
#X connect 85 0 75 0;
#X connect 86 0 76 0;
#X connect 87 0 52 0;
#X connect 87 0 58 0;
#X connect 90 0 82 0;
#X connect 92 0 93 0;
#X connect 94 0 95 0;
