#N canvas 0 297 409 335 10;
#X obj 33 53 - 1;
#X obj 296 31 inlet durmoll;
#X obj 216 31 inlet updown;
#X obj 33 31 inlet interval;
#X obj 125 31 inlet basenote;
#X obj 296 92 scales;
#X obj 125 197 f;
#X obj 43 137 t f b;
#X obj 33 75 loop;
#X obj 33 277 f;
#X obj 154 197 scaledsecond;
#X obj 43 106 f 0;
#X obj 33 305 outlet;
#X obj 296 53 select 0 1;
#X connect 0 0 8 0;
#X connect 1 0 13 0;
#X connect 2 0 10 1;
#X connect 3 0 0 0;
#X connect 4 0 6 0;
#X connect 5 0 10 2;
#X connect 5 1 10 3;
#X connect 6 0 10 0;
#X connect 7 1 6 0;
#X connect 8 0 9 0;
#X connect 8 1 11 0;
#X connect 9 0 12 0;
#X connect 10 0 6 1;
#X connect 10 0 9 1;
#X connect 11 0 7 0;
#X connect 13 0 5 0;
#X connect 13 1 5 1;
