#N canvas 1 159 454 522 10;
#X obj 144 156 inlet;
#X obj 144 206 next-in-scale, f 22;
#X obj 129 379 f;
#X obj 258 380 f;
#X obj 168 460 outlet;
#X floatatom 155 183 5 0 0 0 - - -, f 5;
#X obj 208 156 inlet up;
#X obj 273 156 inlet down;
#X obj 161 345 sel 1 0;
#X obj 68 156 inlet;
#X obj 69 185 v \$0-updown;
#X obj 20 156 inlet;
#X obj 20 178 t b;
#X floatatom 144 232 5 0 0 0 - - -, f 5;
#X floatatom 273 239 5 0 0 0 - - -, f 5;
#X floatatom 168 438 5 0 0 0 - - -, f 5;
#X obj 161 321 v \$0-updown;
#X connect 0 0 5 0;
#X connect 0 0 1 0;
#X connect 1 0 13 0;
#X connect 1 1 14 0;
#X connect 2 0 15 0;
#X connect 3 0 15 0;
#X connect 6 0 1 1;
#X connect 7 0 1 2;
#X connect 8 0 2 0;
#X connect 8 1 3 0;
#X connect 9 0 10 0;
#X connect 11 0 12 0;
#X connect 12 0 16 0;
#X connect 13 0 2 1;
#X connect 14 0 3 1;
#X connect 15 0 4 0;
#X connect 16 0 8 0;
