#N canvas 0 22 454 522 10;
#X obj 41 34 inlet;
#X obj 144 206 next-in-scale;
#X obj 161 231 inlet;
#X obj 129 289 f;
#X obj 207 289 f;
#X obj 164 418 outlet;
#X floatatom 12 84 5 0 0 0 - - -, f 5;
#X floatatom 110 235 5 0 0 0 - - -, f 5;
#X floatatom 240 234 5 0 0 0 - - -, f 5;
#X obj 161 255 sel 0 1;
#X floatatom 235 266 5 0 0 0 - - -, f 5;
#X obj 316 33 inlet up;
#X obj 378 33 inlet down;
#X connect 0 0 6 0;
#X connect 0 0 1 0;
#X connect 1 0 3 1;
#X connect 1 0 7 0;
#X connect 1 1 4 1;
#X connect 1 1 8 0;
#X connect 2 0 9 0;
#X connect 2 0 10 0;
#X connect 3 0 5 0;
#X connect 4 0 5 0;
#X connect 9 0 3 0;
#X connect 9 1 4 0;
#X connect 11 0 1 1;
#X connect 12 0 1 2;
