#N canvas 0 22 364 410 10;
#X obj 37 30 inlet;
#X obj 37 196 v currentnote;
#X obj 116 100 sel 1;
#X obj 195 100 sel 1;
#X msg 195 122 0;
#X obj 83 168 updown;
#X msg 116 122 1;
#X obj 116 78 < \$1;
#X obj 195 78 > \$2;
#X obj 116 145 t f b;
#X obj 37 52 t b f f f, f 40;
#X obj 274 76 v currentnote;
#X obj 143 214 v currentnote;
#X obj 162 168 updown;
#X obj 195 145 t f b;
#X obj 222 190 v currentnote;
#X obj 143 191 \$1;
#X obj 222 168 \$2;
#X connect 0 0 10 0;
#X connect 2 0 6 0;
#X connect 3 0 4 0;
#X connect 4 0 14 0;
#X connect 6 0 9 0;
#X connect 7 0 2 0;
#X connect 8 0 3 0;
#X connect 9 0 5 1;
#X connect 9 1 16 0;
#X connect 10 0 1 0;
#X connect 10 1 7 0;
#X connect 10 2 8 0;
#X connect 10 3 11 0;
#X connect 14 0 13 1;
#X connect 14 1 17 0;
#X connect 16 0 12 0;
#X connect 17 0 15 0;
