#N canvas 44 78 852 583 10;
#X obj 640 45 unpack 0 0 0 0, f 26;
#X obj 433 16 inlet a;
#X obj 640 23 inlet b;
#X obj 433 71 util-updown 2 2;
#X obj 54 18 inlet;
#X obj 657 537 outlet;
#X obj 640 91 v \$0-c1;
#X obj 691 91 v \$0-c2;
#X obj 742 90 v \$0-c3;
#X obj 793 90 v \$0-c4;
#N canvas 0 22 306 229 checkc4 0;
#X obj 18 127 output-lower;
#X obj 18 78 t b b, f 12;
#X obj 87 102 v \$0-c4;
#X obj 18 102 v \$0-in;
#X obj 147 78 t b b, f 13;
#X obj 222 102 v \$0-c4;
#X obj 147 102 v \$0-in;
#X obj 147 127 output-higher;
#X obj 18 52 sel 0, f 22;
#X obj 18 6 inlet;
#X obj 222 158 outlet;
#X obj 18 158 outlet, f 14;
#X obj 18 30 updown;
#X connect 0 0 11 0;
#X connect 0 1 10 0;
#X connect 1 0 3 0;
#X connect 1 1 2 0;
#X connect 2 0 0 1;
#X connect 3 0 0 0;
#X connect 4 0 6 0;
#X connect 4 1 5 0;
#X connect 5 0 7 1;
#X connect 6 0 7 0;
#X connect 7 0 11 0;
#X connect 7 1 10 0;
#X connect 8 0 1 0;
#X connect 8 1 4 0;
#X connect 9 0 12 0;
#X connect 12 0 8 0;
#X restore 54 209 pd checkc4;
#N canvas 0 22 306 229 checkc3 0;
#X obj 18 127 output-lower;
#X obj 18 78 t b b, f 12;
#X obj 18 102 v \$0-in;
#X obj 147 78 t b b, f 13;
#X obj 147 102 v \$0-in;
#X obj 147 127 output-higher;
#X obj 18 52 sel 0, f 22;
#X obj 18 6 inlet;
#X obj 222 158 outlet;
#X obj 18 158 outlet;
#X obj 87 102 v \$0-c3;
#X obj 222 102 v \$0-c3, f 12;
#X obj 18 30 updown;
#X connect 0 0 9 0;
#X connect 0 1 8 0;
#X connect 1 0 2 0;
#X connect 1 1 10 0;
#X connect 2 0 0 0;
#X connect 3 0 4 0;
#X connect 3 1 11 0;
#X connect 4 0 5 0;
#X connect 5 0 9 0;
#X connect 5 1 8 0;
#X connect 6 0 1 0;
#X connect 6 1 3 0;
#X connect 7 0 12 0;
#X connect 10 0 0 1;
#X connect 11 0 5 1;
#X connect 12 0 6 0;
#X restore 54 281 pd checkc3;
#N canvas 0 22 306 229 checkc2 0;
#X obj 18 127 output-lower;
#X obj 18 78 t b b, f 12;
#X obj 18 102 v \$0-in;
#X obj 147 78 t b b, f 13;
#X obj 147 102 v \$0-in;
#X obj 147 127 output-higher;
#X obj 18 52 sel 0, f 22;
#X obj 18 6 inlet;
#X obj 222 158 outlet;
#X obj 18 158 outlet;
#X obj 87 102 v \$0-c2;
#X obj 222 102 v \$0-c2;
#X obj 18 30 updown;
#X connect 0 0 9 0;
#X connect 0 1 8 0;
#X connect 1 0 2 0;
#X connect 1 1 10 0;
#X connect 2 0 0 0;
#X connect 3 0 4 0;
#X connect 3 1 11 0;
#X connect 4 0 5 0;
#X connect 5 0 9 0;
#X connect 5 1 8 0;
#X connect 6 0 1 0;
#X connect 6 1 3 0;
#X connect 7 0 12 0;
#X connect 10 0 0 1;
#X connect 11 0 5 1;
#X connect 12 0 6 0;
#X restore 54 356 pd checkc2;
#N canvas 0 22 306 229 checkc1 0;
#X obj 18 127 output-lower;
#X obj 18 78 t b b, f 12;
#X obj 18 102 v \$0-in;
#X obj 147 78 t b b, f 13;
#X obj 147 102 v \$0-in;
#X obj 147 127 output-higher;
#X obj 18 52 sel 0, f 22;
#X obj 18 6 inlet;
#X obj 222 158 outlet;
#X obj 18 158 outlet;
#X obj 87 102 v \$0-c1;
#X obj 222 102 v \$0-c1, f 14;
#X obj 18 30 updown;
#X connect 0 0 9 0;
#X connect 0 1 8 0;
#X connect 1 0 2 0;
#X connect 1 1 10 0;
#X connect 2 0 0 0;
#X connect 3 0 4 0;
#X connect 3 1 11 0;
#X connect 4 0 5 0;
#X connect 5 0 9 0;
#X connect 5 1 8 0;
#X connect 6 0 1 0;
#X connect 6 1 3 0;
#X connect 7 0 12 0;
#X connect 10 0 0 1;
#X connect 11 0 5 1;
#X connect 12 0 6 0;
#X restore 327 209 pd checkc1;
#X obj 54 422 v \$0-c1;
#N canvas 0 22 306 229 checkc3 0;
#X obj 18 127 output-lower;
#X obj 18 78 t b b, f 12;
#X obj 18 102 v \$0-in;
#X obj 147 78 t b b, f 13;
#X obj 147 102 v \$0-in;
#X obj 147 127 output-higher;
#X obj 18 52 sel 0, f 22;
#X obj 18 6 inlet;
#X obj 222 158 outlet;
#X obj 18 158 outlet;
#X obj 87 102 v \$0-c3;
#X obj 222 102 v \$0-c3;
#X obj 18 30 updown;
#X connect 0 0 9 0;
#X connect 0 1 8 0;
#X connect 1 0 2 0;
#X connect 1 1 10 0;
#X connect 2 0 0 0;
#X connect 3 0 4 0;
#X connect 3 1 11 0;
#X connect 4 0 5 0;
#X connect 5 0 9 0;
#X connect 5 1 8 0;
#X connect 6 0 1 0;
#X connect 6 1 3 0;
#X connect 7 0 12 0;
#X connect 10 0 0 1;
#X connect 11 0 5 1;
#X connect 12 0 6 0;
#X restore 327 309 pd checkc3;
#N canvas 0 22 306 229 checkc2 0;
#X obj 18 127 output-lower;
#X obj 18 78 t b b, f 12;
#X obj 18 102 v \$0-in;
#X obj 147 78 t b b, f 13;
#X obj 147 102 v \$0-in;
#X obj 147 127 output-higher;
#X obj 18 52 sel 0, f 22;
#X obj 18 6 inlet;
#X obj 222 158 outlet;
#X obj 18 158 outlet;
#X obj 87 102 v \$0-c2;
#X obj 222 102 v \$0-c2, f 12;
#X obj 18 30 updown;
#X connect 0 0 9 0;
#X connect 0 1 8 0;
#X connect 1 0 2 0;
#X connect 1 1 10 0;
#X connect 2 0 0 0;
#X connect 3 0 4 0;
#X connect 3 1 11 0;
#X connect 4 0 5 0;
#X connect 5 0 9 0;
#X connect 5 1 8 0;
#X connect 6 0 1 0;
#X connect 6 1 3 0;
#X connect 7 0 12 0;
#X connect 10 0 0 1;
#X connect 11 0 5 1;
#X connect 12 0 6 0;
#X restore 327 261 pd checkc2;
#X obj 327 354 v \$0-c4;
#X obj 681 477 print receiveout;
#X obj 111 251 s \$0-out;
#X obj 111 329 s \$0-out;
#X obj 111 400 s \$0-out;
#X obj 384 235 s \$0-out;
#X obj 384 284 s \$0-out;
#X obj 384 331 s \$0-out;
#X obj 327 430 s \$0-out;
#X obj 664 449 r \$0-out;
#X obj 54 40 t b;
#X obj 433 117 v \$0-in;
#X floatatom 433 95 5 0 0 0 - - -, f 5;
#X floatatom 54 231 5 0 0 0 - - -, f 5;
#X obj 54 250 t b;
#X floatatom 111 232 5 0 0 0 - - -, f 5;
#X floatatom 793 69 5 0 0 0 - - -, f 5;
#X floatatom 742 69 5 0 0 0 - - -, f 5;
#X floatatom 691 70 5 0 0 0 - - -, f 5;
#X floatatom 640 70 5 0 0 0 - - -, f 5;
#X floatatom 433 45 5 0 0 0 - - -, f 5;
#X obj 54 170 t b;
#X obj 327 168 t b;
#X floatatom 54 143 5 0 0 0 - - -, f 5;
#X floatatom 327 143 5 0 0 0 - - -, f 5;
#X floatatom 54 307 5 0 0 0 - - -, f 5;
#X obj 54 329 t b;
#X floatatom 111 307 5 0 0 0 - - -, f 5;
#X floatatom 54 379 5 0 0 0 - - -, f 5;
#X floatatom 111 379 5 0 0 0 - - -, f 5;
#X obj 54 399 t b;
#X obj 327 235 t b;
#X obj 327 285 t b;
#X obj 327 331 t b;
#X obj 327 380 t f b, f 16;
#X msg 420 403 0;
#X obj 54 497 s \$0-out;
#X obj 54 447 t f b, f 16;
#X msg 147 470 1;
#X obj 54 111 sel 1, f 46;
#X obj 387 429 updown;
#X obj 114 496 updown;
#X obj 54 89 updown;
#X connect 0 0 36 0;
#X connect 0 1 35 0;
#X connect 0 2 34 0;
#X connect 0 3 33 0;
#X connect 1 0 37 0;
#X connect 2 0 0 0;
#X connect 3 0 29 0;
#X connect 4 0 27 0;
#X connect 10 0 30 0;
#X connect 10 1 32 0;
#X connect 11 0 42 0;
#X connect 11 1 44 0;
#X connect 12 0 45 0;
#X connect 12 1 46 0;
#X connect 13 0 48 0;
#X connect 13 1 22 0;
#X connect 14 0 54 0;
#X connect 15 0 50 0;
#X connect 15 1 24 0;
#X connect 16 0 49 0;
#X connect 16 1 23 0;
#X connect 17 0 51 0;
#X connect 26 0 5 0;
#X connect 26 0 18 0;
#X connect 27 0 59 0;
#X connect 29 0 28 0;
#X connect 30 0 31 0;
#X connect 31 0 11 0;
#X connect 32 0 19 0;
#X connect 33 0 9 0;
#X connect 34 0 8 0;
#X connect 35 0 7 0;
#X connect 36 0 6 0;
#X connect 37 0 3 0;
#X connect 38 0 10 0;
#X connect 39 0 13 0;
#X connect 40 0 38 0;
#X connect 41 0 39 0;
#X connect 42 0 43 0;
#X connect 43 0 12 0;
#X connect 44 0 20 0;
#X connect 45 0 47 0;
#X connect 46 0 21 0;
#X connect 47 0 14 0;
#X connect 48 0 16 0;
#X connect 49 0 15 0;
#X connect 50 0 17 0;
#X connect 51 0 25 0;
#X connect 51 1 52 0;
#X connect 52 0 57 1;
#X connect 54 0 53 0;
#X connect 54 1 55 0;
#X connect 55 0 58 1;
#X connect 56 0 40 0;
#X connect 56 1 41 0;
#X connect 59 0 56 0;
