#N canvas 0 22 695 701 10;
#X obj 26 11 inlet;
#X obj 550 35 unpack 0 0 0 0;
#X obj 550 121 v c1;
#X obj 577 101 v c2;
#X obj 631 58 v c4;
#X obj 604 79 v c3;
#X obj 433 16 inlet a;
#X obj 550 13 inlet b;
#X obj 26 39 v c1;
#X obj 26 578 outlet;
#X obj 433 173 v tmp;
#X obj 113 87 v c2;
#X obj 200 133 v c3;
#X obj 287 178 v c4;
#X obj 401 329 v tmp;
#X obj 374 303 t b f;
#X obj 513 629 s again;
#X obj 68 12 r again;
#X obj 374 256 v tmp;
#X obj 26 64 util-checkchord;
#X obj 374 232 t b;
#X obj 374 279 util-updown 1 1;
#X obj 433 147 util-updown 2 2;
#X obj 374 352 v updown;
#X obj 374 375 select 1;
#X obj 374 397 t b b;
#X obj 401 418 v c4;
#X obj 362 419 v tmp;
#X obj 379 451 <;
#X obj 454 397 t b b;
#X obj 481 418 v c4;
#X obj 442 419 v tmp;
#X obj 459 451 >;
#X obj 459 473 sel 1;
#X obj 379 473 sel 1;
#X obj 200 156 util-checkchord;
#X obj 287 201 util-checkchord;
#X obj 113 110 util-checkchord;
#X obj 490 208 r again;
#X obj 490 256 v tmp;
#X obj 490 304 debugdump again;
#X obj 200 527 v tmp;
#X connect 0 0 8 0;
#X connect 1 0 2 0;
#X connect 1 1 3 0;
#X connect 1 2 5 0;
#X connect 1 3 4 0;
#X connect 6 0 22 0;
#X connect 7 0 1 0;
#X connect 8 0 19 0;
#X connect 11 0 37 0;
#X connect 12 0 35 0;
#X connect 13 0 36 0;
#X connect 15 0 23 0;
#X connect 15 1 14 0;
#X connect 17 0 8 0;
#X connect 18 0 21 0;
#X connect 19 0 9 0;
#X connect 19 1 11 0;
#X connect 20 0 18 0;
#X connect 21 0 15 0;
#X connect 22 0 10 0;
#X connect 23 0 24 0;
#X connect 24 0 25 0;
#X connect 24 1 29 0;
#X connect 25 0 27 0;
#X connect 25 0 39 0;
#X connect 25 1 26 0;
#X connect 26 0 28 1;
#X connect 27 0 28 0;
#X connect 28 0 34 0;
#X connect 29 0 31 0;
#X connect 29 1 30 0;
#X connect 30 0 32 1;
#X connect 31 0 32 0;
#X connect 32 0 33 0;
#X connect 33 0 16 0;
#X connect 33 1 41 0;
#X connect 34 0 41 0;
#X connect 34 1 16 0;
#X connect 35 0 9 0;
#X connect 35 1 13 0;
#X connect 36 0 9 0;
#X connect 36 1 20 0;
#X connect 37 0 9 0;
#X connect 37 1 12 0;
#X connect 38 0 39 0;
#X connect 39 0 40 0;
#X connect 41 0 9 0;
