#N canvas 0 22 450 300 10;
#X obj 34 9 inlet;
#X obj 50 169 util-interval;
#X msg 50 146 3;
#X obj 125 10 inlet;
#X obj 125 92 + 36;
#X obj 34 71 loop 3;
#X obj 144 186 list prepend;
#X obj 225 186 t l;
#X obj 34 236 list append;
#X obj 125 114 t f f b;
#X obj 34 258 outlet;
#X obj 34 38 t b b;
#X obj 125 70 f;
#X connect 0 0 11 0;
#X connect 1 0 6 0;
#X connect 2 0 1 0;
#X connect 3 0 12 0;
#X connect 4 0 9 0;
#X connect 5 0 8 0;
#X connect 5 1 2 0;
#X connect 6 0 7 0;
#X connect 6 0 8 1;
#X connect 7 0 6 1;
#X connect 8 0 10 0;
#X connect 9 0 1 1;
#X connect 9 1 6 0;
#X connect 9 2 6 1;
#X connect 11 0 5 0;
#X connect 11 1 12 0;
#X connect 12 0 4 0;
